<svg xmlns="http://www.w3.org/2000/svg" xmlns:xlink="http://www.w3.org/1999/xlink" width="1080" zoomAndPan="magnify" viewBox="0 0 810 809.999993" height="1080" preserveAspectRatio="xMidYMid meet" version="1.0"><defs><clipPath id="c7e8b41ecf"><path d="M 124.589844 207 L 685.234375 207 L 685.234375 707.753906 L 124.589844 707.753906 Z M 124.589844 207 " clip-rule="nonzero"/></clipPath><clipPath id="1ad99acb33"><path d="M 173 102.503906 L 561 102.503906 L 561 671 L 173 671 Z M 173 102.503906 " clip-rule="nonzero"/></clipPath><clipPath id="1499ed145c"><path d="M 233.738281 193.242188 L 235 193.242188 L 235 194.921875 L 233.738281 194.921875 Z M 233.738281 193.242188 " clip-rule="nonzero"/></clipPath><clipPath id="b2f4bef9d9"><path d="M 234.757812 194.496094 C 234.421875 194.382812 234.085938 194.246094 233.753906 194.074219 L 233.832031 193.992188 L 234.757812 194.496094 " clip-rule="nonzero"/></clipPath><clipPath id="1696839a83"><path d="M 210.230469 348 L 211.910156 348 L 211.910156 350 L 210.230469 350 Z M 210.230469 348 " clip-rule="nonzero"/></clipPath><clipPath id="5502a6bcc3"><path d="M 210.742188 349.675781 L 211.792969 348.082031 L 210.742188 349.761719 Z M 210.742188 349.675781 " clip-rule="nonzero"/></clipPath><clipPath id="8d872a8426"><path d="M 210.277344 349.597656 L 211.695312 350.082031 L 212.265625 348.238281 L 210.847656 347.753906 Z M 210.277344 349.597656 " clip-rule="nonzero"/></clipPath><linearGradient x1="0.505592" gradientTransform="matrix(24.726477, -80.361129, 79.486762, 27.413523, 198.473112, 390.471237)" y1="0" x2="0.528568" gradientUnits="userSpaceOnUse" y2="0" id="bce6a4e6b2"><stop stop-opacity="1" stop-color="rgb(65.499878%, 18.798828%, 12.5%)" offset="0"/><stop stop-opacity="1" stop-color="rgb(65.499878%, 18.798828%, 12.5%)" offset="0.5"/><stop stop-opacity="1" stop-color="rgb(65.499878%, 18.606567%, 12.5%)" offset="1"/></linearGradient><clipPath id="05985c4e2c"><path d="M 413.089844 184.75 L 507.800781 184.75 L 507.800781 371.605469 L 413.089844 371.605469 Z M 413.089844 184.75 " clip-rule="nonzero"/></clipPath><clipPath id="83b893987c"><path d="M 454.066406 371.605469 L 443.484375 365.554688 L 436.433594 358.242188 L 436.433594 318.675781 L 436.519531 318.589844 L 436.519531 318.503906 C 436.519531 318.335938 436.484375 318.195312 436.433594 318.085938 C 436.433594 317.972656 436.433594 317.886719 436.433594 317.835938 C 436.261719 316.996094 435.398438 316.121094 433.828125 315.230469 L 422.324219 308.507812 L 422.410156 308.507812 L 413.089844 303.132812 L 413.089844 184.75 C 413.101562 185.492188 413.941406 186.355469 415.605469 187.355469 L 431.394531 196.347656 L 431.308594 196.433594 L 434.839844 198.53125 L 434.917969 198.53125 L 455.410156 210.375 C 458.820312 212.277344 462.238281 212.25 465.648438 210.296875 L 505.195312 187.441406 C 505.242188 187.414062 505.28125 187.386719 505.320312 187.355469 Z M 507.800781 339.757812 L 507.800781 340.054688 C 507.78125 340.144531 507.746094 340.242188 507.714844 340.347656 L 507.800781 340.261719 L 507.800781 341.78125 L 507.714844 346.316406 C 507.753906 346.433594 507.785156 346.558594 507.800781 346.6875 L 507.800781 347.109375 C 507.675781 347.96875 506.835938 348.855469 505.28125 349.761719 L 501.378906 352.027344 L 507.714844 329.257812 L 507.714844 339.421875 C 507.761719 339.535156 507.785156 339.648438 507.800781 339.757812 " clip-rule="nonzero"/></clipPath><linearGradient x1="0.00436277" gradientTransform="matrix(95.715384, 0, 0, 95.778029, 412.67072, 278.177318)" y1="0" x2="0.993877" gradientUnits="userSpaceOnUse" y2="0" id="eff92f6956"><stop stop-opacity="1" stop-color="rgb(38.398743%, 55.299377%, 81.599426%)" offset="0"/><stop stop-opacity="1" stop-color="rgb(38.398743%, 55.299377%, 81.599426%)" offset="0.25"/><stop stop-opacity="1" stop-color="rgb(38.398743%, 55.299377%, 81.599426%)" offset="0.3125"/><stop stop-opacity="1" stop-color="rgb(38.398743%, 55.299377%, 81.599426%)" offset="0.34375"/><stop stop-opacity="1" stop-color="rgb(38.786316%, 55.487061%, 81.799316%)" offset="0.347656"/><stop stop-opacity="1" stop-color="rgb(39.175415%, 55.674744%, 81.999207%)" offset="0.351563"/><stop stop-opacity="1" stop-color="rgb(39.414978%, 56.114197%, 82.199097%)" offset="0.355469"/><stop stop-opacity="1" stop-color="rgb(39.656067%, 56.555176%, 82.398987%)" offset="0.359375"/><stop stop-opacity="1" stop-color="rgb(39.845276%, 56.745911%, 82.548523%)" offset="0.367188"/><stop stop-opacity="1" stop-color="rgb(40.426636%, 57.276917%, 82.899475%)" offset="0.371094"/><stop stop-opacity="1" stop-color="rgb(40.817261%, 57.617188%, 83.099365%)" offset="0.375"/><stop stop-opacity="1" stop-color="rgb(41.207886%, 57.807922%, 83.099365%)" offset="0.378906"/><stop stop-opacity="1" stop-color="rgb(41.598511%, 57.998657%, 83.099365%)" offset="0.382813"/><stop stop-opacity="1" stop-color="rgb(42.131042%, 58.389282%, 83.299255%)" offset="0.386719"/><stop stop-opacity="1" stop-color="rgb(42.663574%, 58.779907%, 83.499146%)" offset="0.390625"/><stop stop-opacity="1" stop-color="rgb(43.081665%, 59.21936%, 83.729553%)" offset="0.394531"/><stop stop-opacity="1" stop-color="rgb(43.499756%, 59.660339%, 83.959961%)" offset="0.398438"/><stop stop-opacity="1" stop-color="rgb(43.719482%, 60.050964%, 84.150696%)" offset="0.402344"/><stop stop-opacity="1" stop-color="rgb(43.940735%, 60.441589%, 84.341431%)" offset="0.40625"/><stop stop-opacity="1" stop-color="rgb(44.13147%, 60.643005%, 84.53064%)" offset="0.410156"/><stop stop-opacity="1" stop-color="rgb(44.322205%, 60.844421%, 84.721375%)" offset="0.414063"/><stop stop-opacity="1" stop-color="rgb(44.711304%, 61.422729%, 84.912109%)" offset="0.417969"/><stop stop-opacity="1" stop-color="rgb(45.101929%, 62.002563%, 85.102844%)" offset="0.421875"/><stop stop-opacity="1" stop-color="rgb(45.492554%, 62.200928%, 85.301208%)" offset="0.425781"/><stop stop-opacity="1" stop-color="rgb(45.883179%, 62.399292%, 85.499573%)" offset="0.429688"/><stop stop-opacity="1" stop-color="rgb(46.273804%, 62.731934%, 85.681152%)" offset="0.433594"/><stop stop-opacity="1" stop-color="rgb(46.664429%, 63.064575%, 85.864258%)" offset="0.4375"/><stop stop-opacity="1" stop-color="rgb(46.903992%, 63.504028%, 86.080933%)" offset="0.441406"/><stop stop-opacity="1" stop-color="rgb(47.145081%, 63.945007%, 86.299133%)" offset="0.445313"/><stop stop-opacity="1" stop-color="rgb(47.499084%, 64.535522%, 86.512756%)" offset="0.449219"/><stop stop-opacity="1" stop-color="rgb(47.853088%, 65.126038%, 86.726379%)" offset="0.453125"/><stop stop-opacity="1" stop-color="rgb(48.429871%, 65.516663%, 86.915588%)" offset="0.457031"/><stop stop-opacity="1" stop-color="rgb(49.006653%, 65.907288%, 87.106323%)" offset="0.460938"/><stop stop-opacity="1" stop-color="rgb(49.397278%, 66.297913%, 87.303162%)" offset="0.464844"/><stop stop-opacity="1" stop-color="rgb(49.787903%, 66.688538%, 87.5%)" offset="0.46875"/><stop stop-opacity="1" stop-color="rgb(50.363159%, 67.077637%, 87.637329%)" offset="0.472656"/><stop stop-opacity="1" stop-color="rgb(50.938416%, 67.468262%, 87.776184%)" offset="0.476563"/><stop stop-opacity="1" stop-color="rgb(51.393127%, 67.658997%, 87.986755%)" offset="0.480469"/><stop stop-opacity="1" stop-color="rgb(51.849365%, 67.849731%, 88.198853%)" offset="0.484375"/><stop stop-opacity="1" stop-color="rgb(52.050781%, 68.240356%, 88.214111%)" offset="0.488281"/><stop stop-opacity="1" stop-color="rgb(52.253723%, 68.630981%, 88.230896%)" offset="0.492188"/><stop stop-opacity="1" stop-color="rgb(52.781677%, 69.020081%, 88.420105%)" offset="0.496094"/><stop stop-opacity="1" stop-color="rgb(53.311157%, 69.410706%, 88.61084%)" offset="0.5"/><stop stop-opacity="1" stop-color="rgb(53.701782%, 69.801331%, 88.804626%)" offset="0.503906"/><stop stop-opacity="1" stop-color="rgb(54.092407%, 70.191956%, 88.999939%)" offset="0.507812"/><stop stop-opacity="1" stop-color="rgb(54.483032%, 70.38269%, 89.186096%)" offset="0.511719"/><stop stop-opacity="1" stop-color="rgb(54.873657%, 70.573425%, 89.373779%)" offset="0.515625"/><stop stop-opacity="1" stop-color="rgb(55.31311%, 71.012878%, 89.413452%)" offset="0.519531"/><stop stop-opacity="1" stop-color="rgb(55.754089%, 71.453857%, 89.454651%)" offset="0.523438"/><stop stop-opacity="1" stop-color="rgb(56.144714%, 71.644592%, 89.627075%)" offset="0.527344"/><stop stop-opacity="1" stop-color="rgb(56.535339%, 71.835327%, 89.7995%)" offset="0.53125"/><stop stop-opacity="1" stop-color="rgb(56.922913%, 72.175598%, 89.99939%)" offset="0.535156"/><stop stop-opacity="1" stop-color="rgb(57.312012%, 72.515869%, 90.19928%)" offset="0.539063"/><stop stop-opacity="1" stop-color="rgb(57.653809%, 72.906494%, 90.19928%)" offset="0.542969"/><stop stop-opacity="1" stop-color="rgb(57.997131%, 73.297119%, 90.19928%)" offset="0.546875"/><stop stop-opacity="1" stop-color="rgb(58.38623%, 73.486328%, 90.39917%)" offset="0.550781"/><stop stop-opacity="1" stop-color="rgb(58.776855%, 73.677063%, 90.59906%)" offset="0.554688"/><stop stop-opacity="1" stop-color="rgb(59.16748%, 74.067688%, 90.777588%)" offset="0.558594"/><stop stop-opacity="1" stop-color="rgb(59.558105%, 74.458313%, 90.957642%)" offset="0.5625"/><stop stop-opacity="1" stop-color="rgb(59.997559%, 74.697876%, 90.997314%)" offset="0.566406"/><stop stop-opacity="1" stop-color="rgb(60.438538%, 74.938965%, 91.038513%)" offset="0.570313"/><stop stop-opacity="1" stop-color="rgb(60.818481%, 75.318909%, 91.218567%)" offset="0.574219"/><stop stop-opacity="1" stop-color="rgb(61.199951%, 75.698853%, 91.398621%)" offset="0.578125"/><stop stop-opacity="1" stop-color="rgb(61.199951%, 75.698853%, 91.398621%)" offset="0.59375"/><stop stop-opacity="1" stop-color="rgb(61.199951%, 75.698853%, 91.398621%)" offset="0.625"/><stop stop-opacity="1" stop-color="rgb(61.199951%, 75.698853%, 91.398621%)" offset="0.75"/><stop stop-opacity="1" stop-color="rgb(61.199951%, 75.698853%, 91.398621%)" offset="1"/></linearGradient><clipPath id="9eeb70d2ac"><path d="M 436.433594 328.96875 L 508 328.96875 L 508 508.972656 L 436.433594 508.972656 Z M 436.433594 328.96875 " clip-rule="nonzero"/></clipPath><clipPath id="71faa3893a"><path d="M 443.484375 365.554688 L 454.066406 371.605469 L 452.96875 375.464844 Z M 507.714844 473.09375 L 507.714844 473.847656 C 507.828125 474.132812 507.828125 474.4375 507.714844 474.773438 L 507.800781 474.6875 L 507.714844 480.742188 C 508.109375 481.863281 507.296875 483.003906 505.28125 484.1875 L 465.734375 506.949219 C 462.324219 508.972656 458.90625 508.9375 455.488281 506.871094 L 436.433594 495.988281 L 436.433594 432.261719 C 436.558594 431.894531 436.558594 431.527344 436.433594 431.171875 L 436.519531 425.121094 L 436.433594 425.203125 C 436.542969 424.871094 436.542969 424.5625 436.433594 424.28125 L 436.433594 419.324219 L 458.933594 442.511719 L 473.625 451.5 L 501.378906 352.027344 L 505.28125 349.761719 C 506.835938 348.855469 507.675781 347.96875 507.800781 347.109375 Z M 507.800781 346.6875 C 507.785156 346.558594 507.753906 346.433594 507.714844 346.316406 L 507.800781 341.78125 Z M 507.800781 340.054688 L 507.800781 340.261719 L 507.714844 340.347656 C 507.746094 340.242188 507.78125 340.144531 507.800781 340.054688 Z M 507.714844 329.257812 L 507.800781 328.96875 L 507.800781 339.757812 C 507.785156 339.648438 507.761719 339.535156 507.714844 339.421875 L 507.714844 329.257812 " clip-rule="nonzero"/></clipPath><linearGradient x1="0.248264" gradientTransform="matrix(95.715384, 0, 0, 95.778029, 412.67072, 418.703866)" y1="0" x2="0.997099" gradientUnits="userSpaceOnUse" y2="0" id="7d231b1eee"><stop stop-opacity="1" stop-color="rgb(38.398743%, 55.299377%, 81.599426%)" offset="0"/><stop stop-opacity="1" stop-color="rgb(38.406372%, 55.299377%, 81.599426%)" offset="0.125"/><stop stop-opacity="1" stop-color="rgb(38.613892%, 55.305481%, 81.60553%)" offset="0.128906"/><stop stop-opacity="1" stop-color="rgb(38.812256%, 55.31311%, 81.613159%)" offset="0.132813"/><stop stop-opacity="1" stop-color="rgb(39.006042%, 55.505371%, 81.80542%)" offset="0.140625"/><stop stop-opacity="1" stop-color="rgb(39.399719%, 56.098938%, 82.199097%)" offset="0.144531"/><stop stop-opacity="1" stop-color="rgb(39.599609%, 56.498718%, 82.398987%)" offset="0.148438"/><stop stop-opacity="1" stop-color="rgb(39.826965%, 56.7276%, 82.548523%)" offset="0.152344"/><stop stop-opacity="1" stop-color="rgb(40.055847%, 56.956482%, 82.699585%)" offset="0.15625"/><stop stop-opacity="1" stop-color="rgb(40.246582%, 57.141113%, 82.717896%)" offset="0.164062"/><stop stop-opacity="1" stop-color="rgb(40.817261%, 57.472229%, 82.917786%)" offset="0.167969"/><stop stop-opacity="1" stop-color="rgb(41.19873%, 57.618713%, 83.099365%)" offset="0.171875"/><stop stop-opacity="1" stop-color="rgb(41.398621%, 57.807922%, 83.099365%)" offset="0.175781"/><stop stop-opacity="1" stop-color="rgb(41.598511%, 57.998657%, 83.099365%)" offset="0.179688"/><stop stop-opacity="1" stop-color="rgb(41.989136%, 58.389282%, 83.299255%)" offset="0.183594"/><stop stop-opacity="1" stop-color="rgb(42.379761%, 58.779907%, 83.499146%)" offset="0.1875"/><stop stop-opacity="1" stop-color="rgb(42.739868%, 59.020996%, 83.699036%)" offset="0.191406"/><stop stop-opacity="1" stop-color="rgb(43.099976%, 59.262085%, 83.898926%)" offset="0.195312"/><stop stop-opacity="1" stop-color="rgb(43.321228%, 59.451294%, 83.920288%)" offset="0.199219"/><stop stop-opacity="1" stop-color="rgb(43.54248%, 59.642029%, 83.943176%)" offset="0.203125"/><stop stop-opacity="1" stop-color="rgb(43.733215%, 60.020447%, 84.120178%)" offset="0.207031"/><stop stop-opacity="1" stop-color="rgb(43.92395%, 60.398865%, 84.298706%)" offset="0.210937"/><stop stop-opacity="1" stop-color="rgb(44.113159%, 60.601807%, 84.498596%)" offset="0.214844"/><stop stop-opacity="1" stop-color="rgb(44.303894%, 60.804749%, 84.698486%)" offset="0.21875"/><stop stop-opacity="1" stop-color="rgb(44.500732%, 61.001587%, 84.698486%)" offset="0.222656"/><stop stop-opacity="1" stop-color="rgb(44.699097%, 61.199951%, 84.698486%)" offset="0.226562"/><stop stop-opacity="1" stop-color="rgb(44.932556%, 61.633301%, 85.098267%)" offset="0.230469"/><stop stop-opacity="1" stop-color="rgb(45.166016%, 62.06665%, 85.499573%)" offset="0.234375"/><stop stop-opacity="1" stop-color="rgb(45.532227%, 62.251282%, 85.499573%)" offset="0.238281"/><stop stop-opacity="1" stop-color="rgb(45.899963%, 62.435913%, 85.499573%)" offset="0.242187"/><stop stop-opacity="1" stop-color="rgb(46.113586%, 62.767029%, 85.699463%)" offset="0.246094"/><stop stop-opacity="1" stop-color="rgb(46.328735%, 63.09967%, 85.899353%)" offset="0.25"/><stop stop-opacity="1" stop-color="rgb(46.713257%, 63.304138%, 85.903931%)" offset="0.253906"/><stop stop-opacity="1" stop-color="rgb(47.099304%, 63.510132%, 85.910034%)" offset="0.257812"/><stop stop-opacity="1" stop-color="rgb(47.294617%, 63.900757%, 86.103821%)" offset="0.261719"/><stop stop-opacity="1" stop-color="rgb(47.491455%, 64.291382%, 86.299133%)" offset="0.265625"/><stop stop-opacity="1" stop-color="rgb(47.680664%, 64.730835%, 86.499023%)" offset="0.269531"/><stop stop-opacity="1" stop-color="rgb(47.871399%, 65.171814%, 86.698914%)" offset="0.273437"/><stop stop-opacity="1" stop-color="rgb(48.434448%, 65.362549%, 86.898804%)" offset="0.277344"/><stop stop-opacity="1" stop-color="rgb(48.999023%, 65.553284%, 87.098694%)" offset="0.28125"/><stop stop-opacity="1" stop-color="rgb(49.215698%, 65.943909%, 87.298584%)" offset="0.285156"/><stop stop-opacity="1" stop-color="rgb(49.433899%, 66.334534%, 87.5%)" offset="0.289062"/><stop stop-opacity="1" stop-color="rgb(49.824524%, 66.525269%, 87.504578%)" offset="0.292969"/><stop stop-opacity="1" stop-color="rgb(50.215149%, 66.716003%, 87.510681%)" offset="0.296875"/><stop stop-opacity="1" stop-color="rgb(50.605774%, 67.105103%, 87.654114%)" offset="0.300781"/><stop stop-opacity="1" stop-color="rgb(50.996399%, 67.495728%, 87.799072%)" offset="0.304688"/><stop stop-opacity="1" stop-color="rgb(51.187134%, 67.64679%, 87.988281%)" offset="0.3125"/><stop stop-opacity="1" stop-color="rgb(51.78833%, 68.028259%, 88.188171%)" offset="0.316406"/><stop stop-opacity="1" stop-color="rgb(52.198792%, 68.258667%, 88.198853%)" offset="0.320312"/><stop stop-opacity="1" stop-color="rgb(52.368164%, 68.649292%, 88.398743%)" offset="0.324219"/><stop stop-opacity="1" stop-color="rgb(52.539062%, 69.039917%, 88.598633%)" offset="0.328125"/><stop stop-opacity="1" stop-color="rgb(52.929688%, 69.419861%, 88.798523%)" offset="0.332031"/><stop stop-opacity="1" stop-color="rgb(53.320312%, 69.799805%, 88.999939%)" offset="0.335937"/><stop stop-opacity="1" stop-color="rgb(53.710938%, 69.799805%, 88.999939%)" offset="0.339844"/><stop stop-opacity="1" stop-color="rgb(54.101562%, 69.801331%, 88.999939%)" offset="0.34375"/><stop stop-opacity="1" stop-color="rgb(54.299927%, 70.191956%, 88.999939%)" offset="0.347656"/><stop stop-opacity="1" stop-color="rgb(54.499817%, 70.582581%, 88.999939%)" offset="0.351562"/><stop stop-opacity="1" stop-color="rgb(54.931641%, 70.7901%, 89.199829%)" offset="0.355469"/><stop stop-opacity="1" stop-color="rgb(55.363464%, 70.999146%, 89.399719%)" offset="0.359375"/><stop stop-opacity="1" stop-color="rgb(55.554199%, 71.221924%, 89.422607%)" offset="0.363281"/><stop stop-opacity="1" stop-color="rgb(55.744934%, 71.444702%, 89.445496%)" offset="0.367187"/><stop stop-opacity="1" stop-color="rgb(56.135559%, 71.635437%, 89.622498%)" offset="0.371094"/><stop stop-opacity="1" stop-color="rgb(56.526184%, 71.826172%, 89.7995%)" offset="0.375"/><stop stop-opacity="1" stop-color="rgb(56.716919%, 72.015381%, 89.802551%)" offset="0.382812"/><stop stop-opacity="1" stop-color="rgb(57.249451%, 72.546387%, 90.002441%)" offset="0.386719"/><stop stop-opacity="1" stop-color="rgb(57.591248%, 72.888184%, 90.19928%)" offset="0.390625"/><stop stop-opacity="1" stop-color="rgb(57.829285%, 73.092651%, 90.234375%)" offset="0.394531"/><stop stop-opacity="1" stop-color="rgb(58.068848%, 73.298645%, 90.26947%)" offset="0.398437"/><stop stop-opacity="1" stop-color="rgb(58.459473%, 73.524475%, 90.434265%)" offset="0.402344"/><stop stop-opacity="1" stop-color="rgb(58.850098%, 73.750305%, 90.59906%)" offset="0.40625"/><stop stop-opacity="1" stop-color="rgb(59.040833%, 73.94104%, 90.614319%)" offset="0.414062"/><stop stop-opacity="1" stop-color="rgb(59.622192%, 74.32251%, 90.814209%)" offset="0.417969"/><stop stop-opacity="1" stop-color="rgb(60.012817%, 74.513245%, 90.99884%)" offset="0.421875"/><stop stop-opacity="1" stop-color="rgb(60.205078%, 74.705505%, 90.99884%)" offset="0.429687"/><stop stop-opacity="1" stop-color="rgb(60.786438%, 75.286865%, 91.19873%)" offset="0.433594"/><stop stop-opacity="1" stop-color="rgb(61.175537%, 75.674438%, 91.398621%)" offset="0.4375"/><stop stop-opacity="1" stop-color="rgb(61.187744%, 75.686646%, 91.398621%)" offset="0.5"/><stop stop-opacity="1" stop-color="rgb(61.199951%, 75.698853%, 91.398621%)" offset="1"/></linearGradient><clipPath id="0aec026847"><path d="M 341.726562 431.464844 L 436.433594 431.464844 L 436.433594 550.386719 L 341.726562 550.386719 Z M 341.726562 431.464844 " clip-rule="nonzero"/></clipPath><clipPath id="38219827d0"><path d="M 367.710938 447.929688 L 354.695312 494.519531 L 353.101562 493.59375 C 352.695312 493.152344 352.09375 492.707031 351.296875 492.246094 L 341.726562 486.707031 L 341.726562 431.464844 C 341.746094 432.457031 342.585938 433.480469 344.246094 434.53125 Z M 436.433594 503.003906 L 436.433594 517.117188 L 409.566406 532.996094 L 409.566406 542.742188 L 396.34375 550.386719 L 427.570312 438.265625 L 433.914062 434.617188 C 435.324219 433.808594 436.164062 433.027344 436.433594 432.261719 L 436.433594 503.003906 " clip-rule="nonzero"/></clipPath><linearGradient x1="0.00355414" gradientTransform="matrix(95.715384, 0, 0, 95.778029, 341.387941, 490.927256)" y1="0" x2="0.993" gradientUnits="userSpaceOnUse" y2="0" id="dd539b1ce1"><stop stop-opacity="1" stop-color="rgb(59.999084%, 55.699158%, 81.199646%)" offset="0"/><stop stop-opacity="1" stop-color="rgb(59.999084%, 55.699158%, 81.199646%)" offset="0.25"/><stop stop-opacity="1" stop-color="rgb(59.999084%, 55.699158%, 81.199646%)" offset="0.3125"/><stop stop-opacity="1" stop-color="rgb(59.999084%, 55.793762%, 81.199646%)" offset="0.328125"/><stop stop-opacity="1" stop-color="rgb(59.999084%, 55.990601%, 81.199646%)" offset="0.34375"/><stop stop-opacity="1" stop-color="rgb(60.398865%, 56.295776%, 81.362915%)" offset="0.347656"/><stop stop-opacity="1" stop-color="rgb(60.798645%, 56.498718%, 81.526184%)" offset="0.351563"/><stop stop-opacity="1" stop-color="rgb(61.203003%, 56.90155%, 81.762695%)" offset="0.355469"/><stop stop-opacity="1" stop-color="rgb(61.607361%, 57.305908%, 81.999207%)" offset="0.359375"/><stop stop-opacity="1" stop-color="rgb(61.997986%, 57.647705%, 82.194519%)" offset="0.363281"/><stop stop-opacity="1" stop-color="rgb(62.390137%, 57.989502%, 82.389832%)" offset="0.367188"/><stop stop-opacity="1" stop-color="rgb(62.730408%, 58.19397%, 82.394409%)" offset="0.371094"/><stop stop-opacity="1" stop-color="rgb(63.070679%, 58.399963%, 82.398987%)" offset="0.375"/><stop stop-opacity="1" stop-color="rgb(63.461304%, 58.77533%, 82.548523%)" offset="0.378906"/><stop stop-opacity="1" stop-color="rgb(63.851929%, 59.152222%, 82.699585%)" offset="0.382813"/><stop stop-opacity="1" stop-color="rgb(64.4104%, 59.542847%, 82.899475%)" offset="0.386719"/><stop stop-opacity="1" stop-color="rgb(64.968872%, 59.934998%, 83.099365%)" offset="0.390625"/><stop stop-opacity="1" stop-color="rgb(65.441895%, 60.374451%, 83.299255%)" offset="0.394531"/><stop stop-opacity="1" stop-color="rgb(65.916443%, 60.81543%, 83.499146%)" offset="0.398438"/><stop stop-opacity="1" stop-color="rgb(66.307068%, 61.206055%, 83.69751%)" offset="0.402344"/><stop stop-opacity="1" stop-color="rgb(66.697693%, 61.598206%, 83.8974%)" offset="0.40625"/><stop stop-opacity="1" stop-color="rgb(66.888428%, 61.988831%, 84.088135%)" offset="0.410156"/><stop stop-opacity="1" stop-color="rgb(67.079163%, 62.379456%, 84.27887%)" offset="0.414063"/><stop stop-opacity="1" stop-color="rgb(67.269897%, 62.719727%, 84.288025%)" offset="0.417969"/><stop stop-opacity="1" stop-color="rgb(67.460632%, 63.059998%, 84.298706%)" offset="0.421875"/><stop stop-opacity="1" stop-color="rgb(67.800903%, 63.450623%, 84.498596%)" offset="0.425781"/><stop stop-opacity="1" stop-color="rgb(68.1427%, 63.842773%, 84.698486%)" offset="0.429688"/><stop stop-opacity="1" stop-color="rgb(68.333435%, 64.033508%, 84.898376%)" offset="0.433594"/><stop stop-opacity="1" stop-color="rgb(68.52417%, 64.224243%, 85.099792%)" offset="0.4375"/><stop stop-opacity="1" stop-color="rgb(68.965149%, 64.660645%, 85.299683%)" offset="0.441406"/><stop stop-opacity="1" stop-color="rgb(69.406128%, 65.098572%, 85.499573%)" offset="0.445313"/><stop stop-opacity="1" stop-color="rgb(69.602966%, 65.292358%, 85.499573%)" offset="0.449219"/><stop stop-opacity="1" stop-color="rgb(69.799805%, 65.487671%, 85.499573%)" offset="0.453125"/><stop stop-opacity="1" stop-color="rgb(70.184326%, 65.878296%, 85.699463%)" offset="0.457031"/><stop stop-opacity="1" stop-color="rgb(70.568848%, 66.268921%, 85.899353%)" offset="0.460938"/><stop stop-opacity="1" stop-color="rgb(70.959473%, 66.659546%, 86.099243%)" offset="0.464844"/><stop stop-opacity="1" stop-color="rgb(71.350098%, 67.050171%, 86.299133%)" offset="0.46875"/><stop stop-opacity="1" stop-color="rgb(71.740723%, 67.399597%, 86.499023%)" offset="0.472656"/><stop stop-opacity="1" stop-color="rgb(72.131348%, 67.749023%, 86.698914%)" offset="0.476563"/><stop stop-opacity="1" stop-color="rgb(72.514343%, 67.980957%, 86.706543%)" offset="0.480469"/><stop stop-opacity="1" stop-color="rgb(72.898865%, 68.212891%, 86.714172%)" offset="0.484375"/><stop stop-opacity="1" stop-color="rgb(73.097229%, 68.603516%, 86.906433%)" offset="0.488281"/><stop stop-opacity="1" stop-color="rgb(73.295593%, 68.995667%, 87.098694%)" offset="0.492188"/><stop stop-opacity="1" stop-color="rgb(73.497009%, 69.197083%, 87.298584%)" offset="0.496094"/><stop stop-opacity="1" stop-color="rgb(73.699951%, 69.398499%, 87.5%)" offset="0.5"/><stop stop-opacity="1" stop-color="rgb(74.078369%, 69.778442%, 87.634277%)" offset="0.503906"/><stop stop-opacity="1" stop-color="rgb(74.458313%, 70.158386%, 87.768555%)" offset="0.507812"/><stop stop-opacity="1" stop-color="rgb(74.848938%, 70.549011%, 87.783813%)" offset="0.511719"/><stop stop-opacity="1" stop-color="rgb(75.239563%, 70.939636%, 87.799072%)" offset="0.515625"/><stop stop-opacity="1" stop-color="rgb(75.480652%, 71.380615%, 88.009644%)" offset="0.519531"/><stop stop-opacity="1" stop-color="rgb(75.721741%, 71.821594%, 88.221741%)" offset="0.523438"/><stop stop-opacity="1" stop-color="rgb(76.112366%, 72.010803%, 88.409424%)" offset="0.527344"/><stop stop-opacity="1" stop-color="rgb(76.502991%, 72.201538%, 88.598633%)" offset="0.53125"/><stop stop-opacity="1" stop-color="rgb(76.893616%, 72.543335%, 88.790894%)" offset="0.535156"/><stop stop-opacity="1" stop-color="rgb(77.284241%, 72.885132%, 88.98468%)" offset="0.539062"/><stop stop-opacity="1" stop-color="rgb(77.441406%, 73.275757%, 88.99231%)" offset="0.542969"/><stop stop-opacity="1" stop-color="rgb(77.598572%, 73.666382%, 88.999939%)" offset="0.546875"/><stop stop-opacity="1" stop-color="rgb(77.972412%, 73.857117%, 89.199829%)" offset="0.550781"/><stop stop-opacity="1" stop-color="rgb(78.347778%, 74.047852%, 89.399719%)" offset="0.554688"/><stop stop-opacity="1" stop-color="rgb(78.738403%, 74.438477%, 89.599609%)" offset="0.558594"/><stop stop-opacity="1" stop-color="rgb(79.129028%, 74.829102%, 89.7995%)" offset="0.5625"/><stop stop-opacity="1" stop-color="rgb(79.370117%, 75.270081%, 89.99939%)" offset="0.566406"/><stop stop-opacity="1" stop-color="rgb(79.611206%, 75.71106%, 90.19928%)" offset="0.570313"/><stop stop-opacity="1" stop-color="rgb(80.001831%, 75.904846%, 90.19928%)" offset="0.574219"/><stop stop-opacity="1" stop-color="rgb(80.392456%, 76.098633%, 90.19928%)" offset="0.578125"/><stop stop-opacity="1" stop-color="rgb(80.395508%, 76.098633%, 90.19928%)" offset="0.59375"/><stop stop-opacity="1" stop-color="rgb(80.39856%, 76.098633%, 90.19928%)" offset="0.625"/><stop stop-opacity="1" stop-color="rgb(80.39856%, 76.098633%, 90.19928%)" offset="0.75"/><stop stop-opacity="1" stop-color="rgb(80.39856%, 76.098633%, 90.19928%)" offset="1"/></linearGradient><clipPath id="4761d3fa1f"><path d="M 259.191406 495.527344 L 340.804688 495.527344 L 340.804688 602 L 259.191406 602 Z M 259.191406 495.527344 " clip-rule="nonzero"/></clipPath><clipPath id="d2cf1d949a"><path d="M 259.191406 557.195312 L 259.191406 495.527344 C 259.203125 496.203125 260.042969 497.078125 261.710938 498.128906 L 277.414062 507.035156 L 277.414062 507.121094 L 280.933594 509.21875 L 281.105469 509.21875 L 301.503906 521.066406 C 304.921875 522.972656 308.335938 522.945312 311.75 520.984375 L 340.804688 504.179688 L 314.605469 598.867188 L 311.835938 600.464844 C 311.652344 600.566406 311.46875 600.667969 311.292969 600.757812 C 308.058594 602.464844 304.824219 602.339844 301.589844 600.378906 L 261.710938 577.609375 C 260.03125 576.605469 259.191406 575.566406 259.191406 574.503906 L 259.191406 557.195312 " clip-rule="nonzero"/></clipPath><linearGradient x1="0.00437278" gradientTransform="matrix(95.715384, 0, 0, 95.778029, 258.772131, 548.738535)" y1="0" x2="0.857032" gradientUnits="userSpaceOnUse" y2="0" id="afb298df2a"><stop stop-opacity="1" stop-color="rgb(97.299194%, 61.199951%, 5.899048%)" offset="0"/><stop stop-opacity="1" stop-color="rgb(97.299194%, 61.199951%, 5.899048%)" offset="0.25"/><stop stop-opacity="1" stop-color="rgb(97.299194%, 61.199951%, 5.899048%)" offset="0.375"/><stop stop-opacity="1" stop-color="rgb(97.299194%, 61.199951%, 5.899048%)" offset="0.390625"/><stop stop-opacity="1" stop-color="rgb(97.299194%, 61.235046%, 5.699158%)" offset="0.394531"/><stop stop-opacity="1" stop-color="rgb(97.299194%, 61.270142%, 5.499268%)" offset="0.398438"/><stop stop-opacity="1" stop-color="rgb(97.299194%, 61.660767%, 5.499268%)" offset="0.402344"/><stop stop-opacity="1" stop-color="rgb(97.299194%, 62.051392%, 5.499268%)" offset="0.40625"/><stop stop-opacity="1" stop-color="rgb(97.299194%, 62.231445%, 5.499268%)" offset="0.414062"/><stop stop-opacity="1" stop-color="rgb(97.299194%, 62.562561%, 5.499268%)" offset="0.421875"/><stop stop-opacity="1" stop-color="rgb(97.299194%, 62.905884%, 5.499268%)" offset="0.429688"/><stop stop-opacity="1" stop-color="rgb(97.299194%, 63.487244%, 5.299377%)" offset="0.433594"/><stop stop-opacity="1" stop-color="rgb(97.299194%, 63.874817%, 5.099487%)" offset="0.4375"/><stop stop-opacity="1" stop-color="rgb(97.299194%, 64.115906%, 5.099487%)" offset="0.441406"/><stop stop-opacity="1" stop-color="rgb(97.299194%, 64.356995%, 5.099487%)" offset="0.445312"/><stop stop-opacity="1" stop-color="rgb(97.44873%, 64.546204%, 5.099487%)" offset="0.453125"/><stop stop-opacity="1" stop-color="rgb(97.599792%, 65.118408%, 5.099487%)" offset="0.457031"/><stop stop-opacity="1" stop-color="rgb(97.599792%, 65.499878%, 5.099487%)" offset="0.460938"/><stop stop-opacity="1" stop-color="rgb(97.599792%, 65.699768%, 4.899597%)" offset="0.464844"/><stop stop-opacity="1" stop-color="rgb(97.599792%, 65.899658%, 4.699707%)" offset="0.46875"/><stop stop-opacity="1" stop-color="rgb(97.599792%, 66.094971%, 4.699707%)" offset="0.476562"/><stop stop-opacity="1" stop-color="rgb(97.599792%, 66.525269%, 4.699707%)" offset="0.480469"/><stop stop-opacity="1" stop-color="rgb(97.599792%, 66.76178%, 4.699707%)" offset="0.484375"/><stop stop-opacity="1" stop-color="rgb(97.599792%, 67.129517%, 4.699707%)" offset="0.488281"/><stop stop-opacity="1" stop-color="rgb(97.599792%, 67.498779%, 4.699707%)" offset="0.492188"/><stop stop-opacity="1" stop-color="rgb(97.599792%, 67.648315%, 4.699707%)" offset="0.5"/><stop stop-opacity="1" stop-color="rgb(97.599792%, 68.000793%, 4.499817%)" offset="0.503906"/><stop stop-opacity="1" stop-color="rgb(97.599792%, 68.202209%, 4.299927%)" offset="0.507812"/><stop stop-opacity="1" stop-color="rgb(97.599792%, 68.395996%, 4.299927%)" offset="0.515625"/><stop stop-opacity="1" stop-color="rgb(97.631836%, 68.82782%, 4.299927%)" offset="0.519531"/><stop stop-opacity="1" stop-color="rgb(97.665405%, 69.065857%, 4.299927%)" offset="0.523437"/><stop stop-opacity="1" stop-color="rgb(97.831726%, 69.432068%, 4.299927%)" offset="0.527344"/><stop stop-opacity="1" stop-color="rgb(97.999573%, 69.799805%, 4.299927%)" offset="0.53125"/><stop stop-opacity="1" stop-color="rgb(97.999573%, 69.813538%, 4.299927%)" offset="0.539062"/><stop stop-opacity="1" stop-color="rgb(97.999573%, 70.217896%, 4.098511%)" offset="0.542969"/><stop stop-opacity="1" stop-color="rgb(97.999573%, 70.608521%, 3.898621%)" offset="0.546875"/><stop stop-opacity="1" stop-color="rgb(97.999573%, 70.999146%, 3.898621%)" offset="0.550781"/><stop stop-opacity="1" stop-color="rgb(97.999573%, 71.389771%, 3.898621%)" offset="0.554688"/><stop stop-opacity="1" stop-color="rgb(97.999573%, 71.578979%, 3.898621%)" offset="0.5625"/><stop stop-opacity="1" stop-color="rgb(97.999573%, 72.134399%, 3.898621%)" offset="0.566406"/><stop stop-opacity="1" stop-color="rgb(97.999573%, 72.499084%, 3.898621%)" offset="0.570312"/><stop stop-opacity="1" stop-color="rgb(97.999573%, 72.715759%, 3.881836%)" offset="0.574219"/><stop stop-opacity="1" stop-color="rgb(97.999573%, 72.932434%, 3.866577%)" offset="0.578125"/><stop stop-opacity="1" stop-color="rgb(97.999573%, 73.31543%, 3.681946%)" offset="0.582031"/><stop stop-opacity="1" stop-color="rgb(97.999573%, 73.699951%, 3.49884%)" offset="0.585938"/><stop stop-opacity="1" stop-color="rgb(97.999573%, 73.89679%, 3.49884%)" offset="0.589844"/><stop stop-opacity="1" stop-color="rgb(97.999573%, 74.093628%, 3.49884%)" offset="0.59375"/><stop stop-opacity="1" stop-color="rgb(97.999573%, 74.484253%, 3.49884%)" offset="0.597656"/><stop stop-opacity="1" stop-color="rgb(97.999573%, 74.874878%, 3.49884%)" offset="0.601562"/><stop stop-opacity="1" stop-color="rgb(98.027039%, 74.914551%, 3.469849%)" offset="0.609375"/><stop stop-opacity="1" stop-color="rgb(98.226929%, 75.346375%, 3.269958%)" offset="0.613281"/><stop stop-opacity="1" stop-color="rgb(98.399353%, 75.737%, 3.09906%)" offset="0.617187"/><stop stop-opacity="1" stop-color="rgb(98.399353%, 75.927734%, 3.09906%)" offset="0.625"/><stop stop-opacity="1" stop-color="rgb(98.399353%, 76.507568%, 3.09906%)" offset="0.628906"/><stop stop-opacity="1" stop-color="rgb(98.399353%, 76.898193%, 3.09906%)" offset="0.632813"/><stop stop-opacity="1" stop-color="rgb(98.399353%, 77.241516%, 2.908325%)" offset="0.636719"/><stop stop-opacity="1" stop-color="rgb(98.399353%, 77.584839%, 2.719116%)" offset="0.640625"/><stop stop-opacity="1" stop-color="rgb(98.399353%, 77.622986%, 2.708435%)" offset="0.648438"/><stop stop-opacity="1" stop-color="rgb(98.220825%, 78.030396%, 2.69928%)" offset="0.652344"/><stop stop-opacity="1" stop-color="rgb(98.042297%, 78.399658%, 2.69928%)" offset="0.65625"/><stop stop-opacity="1" stop-color="rgb(98.220825%, 78.599548%, 2.69928%)" offset="0.660156"/><stop stop-opacity="1" stop-color="rgb(98.399353%, 78.799438%, 2.69928%)" offset="0.664062"/><stop stop-opacity="1" stop-color="rgb(98.399353%, 78.799438%, 2.69928%)" offset="0.671875"/><stop stop-opacity="1" stop-color="rgb(98.399353%, 78.799438%, 2.69928%)" offset="0.6875"/><stop stop-opacity="1" stop-color="rgb(98.399353%, 78.799438%, 2.69928%)" offset="0.75"/><stop stop-opacity="1" stop-color="rgb(98.399353%, 78.799438%, 2.69928%)" offset="1"/></linearGradient><clipPath id="5d9a050a1b"><path d="M 341.726562 318.503906 L 436.558594 318.503906 L 436.558594 447.929688 L 341.726562 447.929688 Z M 341.726562 318.503906 " clip-rule="nonzero"/></clipPath><clipPath id="118e8523fc"><path d="M 436.433594 318.675781 L 436.433594 358.242188 L 416.113281 337.074219 C 416.113281 337.015625 416.085938 336.988281 416.027344 336.988281 L 415.949219 336.988281 L 411.285156 334.171875 L 433.828125 321.109375 C 435.285156 320.269531 436.152344 319.457031 436.433594 318.675781 Z M 341.726562 329.464844 L 341.726562 318.503906 C 341.734375 319.1875 342.574219 320.027344 344.246094 321.023438 L 360.027344 330.015625 L 359.945312 330.097656 L 363.558594 332.117188 L 363.636719 332.117188 L 384.042969 344.042969 C 387.511719 345.949219 390.949219 345.921875 394.367188 343.957031 L 397.265625 342.277344 L 367.710938 447.929688 L 344.246094 434.53125 C 342.585938 433.480469 341.746094 432.457031 341.726562 431.464844 L 341.726562 412.269531 C 341.726562 412.15625 341.726562 412.042969 341.726562 411.933594 Z M 436.433594 432.261719 C 436.164062 433.027344 435.324219 433.808594 433.914062 434.617188 L 427.570312 438.265625 L 433.660156 416.46875 L 436.433594 419.324219 L 436.433594 424.28125 C 436.542969 424.5625 436.542969 424.871094 436.433594 425.203125 L 436.519531 425.121094 L 436.433594 431.171875 C 436.558594 431.527344 436.558594 431.894531 436.433594 432.261719 " clip-rule="nonzero"/></clipPath><linearGradient x1="0.00355414" gradientTransform="matrix(95.715384, 0, 0, 95.778029, 341.387941, 383.218977)" y1="0" x2="0.994302" gradientUnits="userSpaceOnUse" y2="0" id="656531cd6c"><stop stop-opacity="1" stop-color="rgb(59.999084%, 55.699158%, 81.199646%)" offset="0"/><stop stop-opacity="1" stop-color="rgb(59.999084%, 55.699158%, 81.199646%)" offset="0.25"/><stop stop-opacity="1" stop-color="rgb(59.999084%, 55.699158%, 81.199646%)" offset="0.3125"/><stop stop-opacity="1" stop-color="rgb(59.999084%, 55.795288%, 81.199646%)" offset="0.328125"/><stop stop-opacity="1" stop-color="rgb(59.999084%, 55.992126%, 81.199646%)" offset="0.34375"/><stop stop-opacity="1" stop-color="rgb(60.568237%, 56.295776%, 81.399536%)" offset="0.347656"/><stop stop-opacity="1" stop-color="rgb(61.13739%, 56.498718%, 81.599426%)" offset="0.351562"/><stop stop-opacity="1" stop-color="rgb(61.378479%, 56.906128%, 81.799316%)" offset="0.355469"/><stop stop-opacity="1" stop-color="rgb(61.619568%, 57.313538%, 81.999207%)" offset="0.359375"/><stop stop-opacity="1" stop-color="rgb(62.010193%, 57.65686%, 82.199097%)" offset="0.363281"/><stop stop-opacity="1" stop-color="rgb(62.400818%, 58.000183%, 82.398987%)" offset="0.367187"/><stop stop-opacity="1" stop-color="rgb(62.741089%, 58.200073%, 82.398987%)" offset="0.371094"/><stop stop-opacity="1" stop-color="rgb(63.082886%, 58.399963%, 82.398987%)" offset="0.375"/><stop stop-opacity="1" stop-color="rgb(63.473511%, 58.781433%, 82.548523%)" offset="0.378906"/><stop stop-opacity="1" stop-color="rgb(63.864136%, 59.164429%, 82.699585%)" offset="0.382812"/><stop stop-opacity="1" stop-color="rgb(64.454651%, 59.555054%, 82.899475%)" offset="0.386719"/><stop stop-opacity="1" stop-color="rgb(65.046692%, 59.945679%, 83.099365%)" offset="0.390625"/><stop stop-opacity="1" stop-color="rgb(65.487671%, 60.586548%, 83.312988%)" offset="0.394531"/><stop stop-opacity="1" stop-color="rgb(65.92865%, 61.227417%, 83.528137%)" offset="0.398437"/><stop stop-opacity="1" stop-color="rgb(66.313171%, 61.613464%, 83.712769%)" offset="0.402344"/><stop stop-opacity="1" stop-color="rgb(66.699219%, 61.999512%, 83.898926%)" offset="0.40625"/><stop stop-opacity="1" stop-color="rgb(66.894531%, 62.194824%, 84.094238%)" offset="0.410156"/><stop stop-opacity="1" stop-color="rgb(67.09137%, 62.391663%, 84.291077%)" offset="0.414062"/><stop stop-opacity="1" stop-color="rgb(67.434692%, 62.731934%, 84.294128%)" offset="0.417969"/><stop stop-opacity="1" stop-color="rgb(67.779541%, 63.07373%, 84.298706%)" offset="0.421875"/><stop stop-opacity="1" stop-color="rgb(67.967224%, 63.464355%, 84.498596%)" offset="0.425781"/><stop stop-opacity="1" stop-color="rgb(68.154907%, 63.85498%, 84.698486%)" offset="0.429687"/><stop stop-opacity="1" stop-color="rgb(68.545532%, 64.045715%, 84.898376%)" offset="0.433594"/><stop stop-opacity="1" stop-color="rgb(68.937683%, 64.237976%, 85.099792%)" offset="0.4375"/><stop stop-opacity="1" stop-color="rgb(69.178772%, 64.677429%, 85.299683%)" offset="0.441406"/><stop stop-opacity="1" stop-color="rgb(69.419861%, 65.118408%, 85.499573%)" offset="0.445312"/><stop stop-opacity="1" stop-color="rgb(69.610596%, 65.309143%, 85.499573%)" offset="0.453125"/><stop stop-opacity="1" stop-color="rgb(70.191956%, 65.892029%, 85.699463%)" offset="0.457031"/><stop stop-opacity="1" stop-color="rgb(70.582581%, 66.282654%, 85.899353%)" offset="0.460937"/><stop stop-opacity="1" stop-color="rgb(70.973206%, 66.673279%, 86.099243%)" offset="0.464844"/><stop stop-opacity="1" stop-color="rgb(71.365356%, 67.063904%, 86.299133%)" offset="0.46875"/><stop stop-opacity="1" stop-color="rgb(71.755981%, 67.411804%, 86.499023%)" offset="0.472656"/><stop stop-opacity="1" stop-color="rgb(72.146606%, 67.759705%, 86.698914%)" offset="0.476562"/><stop stop-opacity="1" stop-color="rgb(72.521973%, 67.993164%, 86.712646%)" offset="0.480469"/><stop stop-opacity="1" stop-color="rgb(72.898865%, 68.228149%, 86.727905%)" offset="0.484375"/><stop stop-opacity="1" stop-color="rgb(73.104858%, 68.618774%, 86.91864%)" offset="0.488281"/><stop stop-opacity="1" stop-color="rgb(73.310852%, 69.009399%, 87.110901%)" offset="0.492187"/><stop stop-opacity="1" stop-color="rgb(73.504639%, 69.203186%, 87.304688%)" offset="0.5"/><stop stop-opacity="1" stop-color="rgb(74.085999%, 69.973755%, 87.640381%)" offset="0.503906"/><stop stop-opacity="1" stop-color="rgb(74.473572%, 70.549011%, 87.780762%)" offset="0.507812"/><stop stop-opacity="1" stop-color="rgb(74.864197%, 70.751953%, 87.968445%)" offset="0.511719"/><stop stop-opacity="1" stop-color="rgb(75.256348%, 70.956421%, 88.156128%)" offset="0.515625"/><stop stop-opacity="1" stop-color="rgb(75.495911%, 71.395874%, 88.195801%)" offset="0.519531"/><stop stop-opacity="1" stop-color="rgb(75.737%, 71.836853%, 88.237%)" offset="0.523438"/><stop stop-opacity="1" stop-color="rgb(76.127625%, 72.024536%, 88.417053%)" offset="0.527344"/><stop stop-opacity="1" stop-color="rgb(76.519775%, 72.213745%, 88.598633%)" offset="0.53125"/><stop stop-opacity="1" stop-color="rgb(76.9104%, 72.557068%, 88.798523%)" offset="0.535156"/><stop stop-opacity="1" stop-color="rgb(77.301025%, 72.901917%, 88.999939%)" offset="0.539062"/><stop stop-opacity="1" stop-color="rgb(77.641296%, 73.292542%, 89.190674%)" offset="0.542969"/><stop stop-opacity="1" stop-color="rgb(77.983093%, 73.683167%, 89.382935%)" offset="0.546875"/><stop stop-opacity="1" stop-color="rgb(78.373718%, 73.890686%, 89.390564%)" offset="0.550781"/><stop stop-opacity="1" stop-color="rgb(78.764343%, 74.099731%, 89.399719%)" offset="0.554687"/><stop stop-opacity="1" stop-color="rgb(78.955078%, 74.645996%, 89.599609%)" offset="0.558594"/><stop stop-opacity="1" stop-color="rgb(79.147339%, 75.193787%, 89.7995%)" offset="0.5625"/><stop stop-opacity="1" stop-color="rgb(79.573059%, 75.460815%, 89.99939%)" offset="0.566406"/><stop stop-opacity="1" stop-color="rgb(79.998779%, 75.727844%, 90.19928%)" offset="0.570312"/><stop stop-opacity="1" stop-color="rgb(80.198669%, 75.912476%, 90.19928%)" offset="0.574219"/><stop stop-opacity="1" stop-color="rgb(80.39856%, 76.098633%, 90.19928%)" offset="0.578125"/><stop stop-opacity="1" stop-color="rgb(80.39856%, 76.098633%, 90.19928%)" offset="0.59375"/><stop stop-opacity="1" stop-color="rgb(80.39856%, 76.098633%, 90.19928%)" offset="0.625"/><stop stop-opacity="1" stop-color="rgb(80.39856%, 76.098633%, 90.19928%)" offset="0.75"/><stop stop-opacity="1" stop-color="rgb(80.39856%, 76.098633%, 90.19928%)" offset="1"/></linearGradient></defs><g clip-path="url(#c7e8b41ecf)"><path fill="#f6fcfe" d="M 504.691406 655.492188 C 502.453125 653.753906 500.636719 652.296875 499.234375 651.121094 L 454.988281 676.660156 L 464.808594 682.378906 L 507.378906 657.679688 C 506.539062 657.003906 505.640625 656.273438 504.691406 655.492188 Z M 470.523438 624.914062 C 472.820312 626.253906 474.636719 627.511719 475.980469 628.695312 L 509.984375 609.027344 L 500.074219 603.316406 L 466.574219 622.8125 C 467.808594 623.371094 469.117188 624.074219 470.523438 624.914062 Z M 540.878906 626.929688 L 503.9375 648.351562 C 508.691406 649.972656 512.246094 651.679688 514.601562 653.476562 L 550.707031 632.554688 Z M 520.480469 615.164062 L 458.597656 651.035156 C 459.773438 651.875 461.117188 652.886719 462.625 654.0625 C 464.253906 655.40625 465.648438 656.617188 466.824219 657.679688 L 487.394531 645.746094 L 487.316406 645.660156 L 530.382812 620.789062 Z M 534.917969 585.675781 L 516.109375 596.511719 L 525.851562 602.144531 L 544.238281 591.554688 C 540.433594 589.207031 537.324219 587.242188 534.917969 585.675781 Z M 506.789062 515.605469 L 536.679688 498.382812 L 526.777344 492.667969 L 498.5625 509.050781 C 501.589844 510.730469 504.332031 512.914062 506.789062 515.605469 Z M 507.378906 541.0625 C 507.714844 540.898438 507.964844 540.753906 508.132812 540.640625 C 508.246094 540.582031 508.359375 540.53125 508.46875 540.476562 C 510.933594 539.132812 513.875 538.488281 517.285156 538.539062 C 520.589844 538.652344 523.445312 539.355469 525.851562 540.640625 C 526.074219 540.753906 526.269531 540.863281 526.433594 540.976562 C 526.496094 540.976562 526.519531 541.003906 526.519531 541.0625 C 529.039062 542.578125 530.332031 544.363281 530.382812 546.4375 C 530.382812 548.5625 529.125 550.363281 526.605469 551.820312 C 526.324219 551.925781 526.046875 552.042969 525.765625 552.152344 C 523.417969 553.328125 520.675781 553.859375 517.539062 553.75 C 514.011719 553.695312 510.960938 552.960938 508.382812 551.5625 C 508.382812 551.503906 508.359375 551.453125 508.304688 551.398438 C 505.726562 549.882812 504.441406 548.066406 504.441406 545.9375 C 504.382812 544.035156 505.367188 542.40625 507.378906 541.0625 Z M 492.851562 560.46875 L 492.773438 560.46875 C 499.488281 564.5 507.578125 566.601562 517.035156 566.769531 C 526.433594 566.941406 534.445312 565.117188 541.050781 561.308594 C 547.597656 557.445312 550.84375 552.765625 550.785156 547.277344 C 550.785156 546.777344 550.730469 546.300781 550.621094 545.851562 C 550.0625 540.976562 546.703125 536.722656 540.542969 533.078125 L 540.628906 532.996094 C 536.320312 530.363281 531.394531 528.519531 525.851562 527.453125 C 522.886719 527 519.75 526.726562 516.445312 526.613281 C 513.652344 526.554688 510.988281 526.691406 508.46875 527.035156 C 502.429688 527.703125 497.082031 529.382812 492.429688 532.074219 C 485.886719 535.882812 482.636719 540.445312 482.695312 545.765625 C 482.636719 545.878906 482.636719 545.964844 482.695312 546.015625 C 482.75 551.5625 486.132812 556.382812 492.851562 560.46875 Z M 600.949219 558.703125 L 611.828125 552.402344 L 602 546.691406 L 578.832031 560.222656 C 579.148438 560.34375 579.46875 560.488281 579.796875 560.640625 C 574.8125 561.882812 570.238281 563.707031 566.066406 566.101562 C 562.875 567.925781 560.269531 569.902344 558.261719 572.023438 L 540.628906 582.230469 C 541.804688 582.734375 543.0625 583.324219 544.410156 583.996094 C 546.980469 585.28125 549.191406 586.488281 551.039062 587.605469 L 553.304688 586.304688 C 553.761719 589.730469 555.304688 592.894531 557.921875 595.796875 L 536.433594 608.273438 L 546.335938 613.992188 L 566.402344 602.308594 C 570.21875 604.453125 574.390625 606.121094 578.910156 607.308594 L 556.917969 620.035156 L 566.65625 625.753906 L 594.613281 609.535156 L 594.527344 609.496094 C 595.507812 609.519531 596.484375 609.535156 597.46875 609.535156 C 609.726562 609.535156 620.167969 607.074219 628.789062 602.144531 C 637.460938 597.15625 641.804688 591.136719 641.804688 584.078125 C 641.804688 583.457031 641.769531 582.839844 641.71875 582.230469 L 652.546875 575.929688 L 642.804688 570.304688 L 637.730469 573.242188 C 635.609375 570.675781 632.660156 568.308594 628.867188 566.140625 L 632.3125 564.164062 L 622.320312 558.539062 L 617.53125 561.308594 C 612.46875 559.808594 606.941406 558.941406 600.949219 558.703125 Z M 424.003906 658.769531 L 466.992188 633.984375 L 466.910156 633.898438 L 469.597656 632.304688 C 468.535156 631.410156 467.328125 630.375 465.984375 629.191406 C 464.304688 627.734375 462.933594 626.535156 461.871094 625.582031 L 414.183594 653.136719 Z M 444.410156 670.617188 L 458.933594 662.300781 C 457.535156 661.066406 456.136719 659.582031 454.734375 657.84375 C 453.78125 656.722656 452.96875 655.65625 452.300781 654.652344 L 434.582031 664.898438 Z M 419.976562 633.230469 C 417.902344 631.4375 416.308594 630.007812 415.1875 628.941406 L 393.785156 641.375 L 403.601562 647.007812 L 423.164062 635.75 C 422.101562 635.019531 421.039062 634.179688 419.976562 633.230469 Z M 446.59375 622.136719 L 446.507812 622.050781 L 489.578125 597.265625 L 479.757812 591.554688 L 419.976562 626.171875 C 421.261719 626.730469 422.71875 627.402344 424.34375 628.1875 C 426.804688 629.363281 428.851562 630.453125 430.472656 631.464844 Z M 438.363281 601.046875 C 437.855469 600.652344 437.359375 600.234375 436.851562 599.785156 C 434.78125 597.832031 432.964844 595.84375 431.394531 593.828125 L 372.707031 627.855469 L 382.449219 633.480469 L 425.433594 608.609375 L 425.347656 608.53125 Z M 244.414062 496.449219 C 243.410156 494.433594 242.570312 492.503906 241.894531 490.652344 C 237.753906 493.0625 233.667969 495.46875 229.632812 497.878906 C 231.484375 499.609375 233.496094 502.300781 235.679688 505.945312 C 239.210938 503.871094 242.757812 501.796875 246.347656 499.730469 C 245.78125 498.832031 245.140625 497.742188 244.414062 496.449219 Z M 228.125 506.109375 C 227.175781 504.316406 226.359375 502.386719 225.691406 500.3125 C 221.546875 502.835938 217.40625 505.300781 213.261719 507.710938 C 214.886719 510.453125 216.679688 513.25 218.640625 516.113281 C 222.386719 513.925781 226.164062 511.6875 229.976562 509.390625 C 229.300781 508.378906 228.683594 507.289062 228.125 506.109375 Z M 218.300781 463.765625 C 217.460938 461.46875 216.816406 459.625 216.371094 458.21875 C 209.710938 462.035156 203.160156 465.867188 196.726562 469.734375 C 197.789062 472.757812 198.9375 475.921875 200.167969 479.222656 C 206.605469 475.363281 213.148438 471.523438 219.8125 467.71875 C 219.25 466.542969 218.75 465.222656 218.300781 463.765625 Z M 193.109375 459.566406 C 196.699219 457.550781 200.246094 455.449219 203.777344 453.265625 C 203.332031 452.425781 202.9375 451.386719 202.601562 450.160156 C 201.59375 447.132812 200.949219 445 200.667969 443.773438 C 197.144531 445.839844 193.589844 447.972656 190.007812 450.160156 C 190.960938 453.238281 191.996094 456.375 193.109375 459.566406 Z M 236.015625 423.105469 C 225.4375 429.15625 214.941406 435.285156 204.53125 441.503906 C 205.09375 442.675781 205.703125 444.160156 206.378906 445.960938 C 207.160156 447.691406 207.863281 449.261719 208.480469 450.660156 C 218.445312 444.667969 228.433594 438.816406 238.449219 433.101562 C 237.953125 431.925781 237.472656 430.582031 237.027344 429.070312 C 236.582031 426.4375 236.238281 424.449219 236.015625 423.105469 Z M 280.09375 456.289062 C 287.316406 452.203125 294.566406 448.085938 301.847656 443.9375 C 300.554688 440.695312 299.269531 437.636719 297.984375 434.78125 C 290.316406 439.152344 282.699219 443.519531 275.144531 447.890625 C 277.214844 450.519531 278.863281 453.324219 280.09375 456.289062 Z M 256.003906 434.953125 C 244.523438 441.613281 233.164062 448.222656 221.914062 454.78125 C 223.148438 456.179688 224.289062 457.972656 225.355469 460.15625 C 225.914062 461.277344 226.359375 462.421875 226.695312 463.601562 C 233.136719 459.789062 239.570312 455.980469 246.007812 452.175781 C 250.261719 449.65625 254.574219 447.1875 258.941406 444.777344 C 258.378906 443.773438 257.90625 442.511719 257.511719 440.996094 C 256.730469 438.476562 256.226562 436.460938 256.003906 434.953125 Z M 271.535156 456.539062 C 270.355469 454.242188 269.546875 452.457031 269.09375 451.164062 C 246.707031 464.050781 224.988281 476.675781 203.945312 489.058594 C 205.34375 492.304688 206.800781 495.359375 208.308594 498.214844 C 223.421875 489.253906 238.5625 480.289062 253.734375 471.328125 C 260.390625 467.632812 266.996094 463.90625 273.550781 460.15625 C 272.875 459.09375 272.203125 457.886719 271.535156 456.539062 Z M 270.277344 403.273438 C 260.199219 408.992188 250.152344 414.789062 240.128906 420.667969 C 240.804688 421.792969 241.617188 423.328125 242.570312 425.289062 C 243.347656 426.910156 243.964844 428.285156 244.414062 429.40625 C 253.871094 424.03125 263.414062 418.652344 273.042969 413.273438 C 272.488281 411.984375 271.980469 410.417969 271.535156 408.574219 C 270.917969 406.164062 270.5 404.398438 270.277344 403.273438 Z M 282.871094 396.046875 C 280.121094 397.617188 277.355469 399.160156 274.554688 400.667969 C 275.734375 403.078125 277.019531 406.25 278.417969 410.167969 C 281.046875 408.539062 283.734375 406.972656 286.476562 405.460938 C 285.304688 402.269531 284.097656 399.132812 282.871094 396.046875 Z M 290.257812 415.628906 C 280.292969 421.175781 270.414062 426.800781 260.621094 432.515625 C 262.910156 435.535156 264.476562 438.425781 265.316406 441.167969 C 274.835938 435.792969 284.40625 430.382812 294.035156 424.957031 C 292.691406 421.757812 291.429688 418.652344 290.257812 415.628906 Z M 358.941406 284.648438 C 348.96875 290.1875 339.089844 295.820312 329.296875 301.53125 C 331.59375 304.558594 333.160156 307.445312 334 310.1875 C 343.511719 304.8125 353.089844 299.402344 362.71875 293.96875 C 361.375 290.78125 360.113281 287.667969 358.941406 284.648438 Z M 331.988281 281.625 C 339.210938 277.535156 346.449219 273.417969 353.730469 269.269531 C 352.445312 266.019531 351.152344 262.96875 349.867188 260.113281 C 342.199219 264.484375 334.589844 268.851562 327.035156 273.222656 C 329.101562 275.855469 330.753906 278.648438 331.988281 281.625 Z M 342.148438 240.960938 C 332.175781 246.5 322.300781 252.132812 312.503906 257.84375 C 314.800781 260.867188 316.371094 263.757812 317.207031 266.5 C 326.71875 261.125 336.296875 255.714844 345.925781 250.28125 C 344.582031 247.089844 343.320312 243.980469 342.148438 240.960938 Z M 275.3125 376.894531 C 244.300781 394.488281 213.515625 412.40625 182.957031 430.664062 C 184.242188 433.855469 185.390625 436.96875 186.394531 439.992188 C 201.675781 430.914062 217.074219 421.898438 232.574219 412.9375 L 232.574219 412.773438 C 247.855469 403.917969 263.363281 395.011719 279.09375 386.050781 C 277.578125 382.914062 276.316406 379.863281 275.3125 376.894531 Z M 260.199219 323.546875 C 275.3125 314.585938 290.453125 305.621094 305.625 296.660156 C 312.28125 292.964844 318.886719 289.238281 325.433594 285.488281 C 324.765625 284.425781 324.097656 283.21875 323.421875 281.871094 C 322.246094 279.574219 321.433594 277.785156 320.988281 276.496094 C 298.59375 289.382812 276.882812 302.011719 255.832031 314.390625 C 257.230469 317.636719 258.6875 320.691406 260.199219 323.546875 Z M 286.984375 332.789062 C 286.144531 330.488281 285.5 328.640625 285.046875 327.242188 C 278.390625 331.054688 271.84375 334.886719 265.402344 338.753906 C 266.464844 341.78125 267.613281 344.945312 268.847656 348.246094 C 275.28125 344.378906 281.832031 340.546875 288.492188 336.738281 C 287.933594 335.558594 287.429688 334.246094 286.984375 332.789062 Z M 294.035156 329.175781 C 294.59375 330.292969 295.042969 331.441406 295.378906 332.617188 C 301.8125 328.808594 308.25 325.003906 314.691406 321.195312 C 318.941406 318.675781 323.257812 316.207031 327.617188 313.796875 C 327.0625 312.792969 326.582031 311.535156 326.195312 310.019531 C 325.410156 307.496094 324.902344 305.480469 324.679688 303.972656 C 313.207031 310.636719 301.847656 317.246094 290.589844 323.796875 C 291.824219 325.199219 292.972656 326.992188 294.035156 329.175781 Z M 195.628906 314.390625 C 190.429688 317.578125 186.03125 321.917969 182.453125 327.410156 C 178.757812 332.898438 176.320312 338.976562 175.144531 345.640625 L 174.640625 345.558594 C 172.847656 356.3125 174.390625 365.949219 179.257812 374.460938 C 181.257812 378.039062 183.652344 381.058594 186.441406 383.53125 L 187.910156 384.792969 L 192.191406 387.398438 C 193.984375 388.460938 195.9375 389.300781 198.070312 389.917969 C 198.40625 389.96875 198.738281 390.054688 199.074219 390.167969 C 204.839844 391.625 210.691406 391.460938 216.621094 389.667969 L 216.542969 389.582031 C 219.839844 388.632812 223.148438 387.03125 226.445312 384.792969 C 234.558594 379.417969 240.359375 371.882812 243.828125 362.191406 L 243.992188 362.191406 C 246.957031 353.285156 247.410156 344.550781 245.335938 335.976562 C 243.042969 327.523438 238.789062 320.855469 232.574219 315.984375 L 232.992188 315.5625 C 229.691406 312.992188 226.222656 311.226562 222.582031 310.273438 C 220.121094 309.484375 217.570312 309.039062 214.941406 308.929688 C 208.453125 308.757812 202.15625 310.472656 196.050781 314.054688 C 195.996094 314.105469 195.9375 314.167969 195.886719 314.21875 C 195.773438 314.277344 195.664062 314.304688 195.550781 314.304688 Z M 252.054688 304.558594 C 258.488281 300.691406 265.042969 296.859375 271.699219 293.050781 C 271.140625 291.867188 270.636719 290.554688 270.191406 289.097656 C 269.351562 286.800781 268.707031 284.949219 268.253906 283.554688 C 261.597656 287.367188 255.050781 291.199219 248.609375 295.066406 C 249.671875 298.089844 250.820312 301.253906 252.054688 304.558594 Z M 278.585938 288.929688 C 285.023438 285.121094 291.457031 281.316406 297.898438 277.507812 C 302.148438 274.988281 306.464844 272.519531 310.828125 270.109375 C 310.269531 269.105469 309.789062 267.847656 309.402344 266.328125 C 308.617188 263.808594 308.109375 261.792969 307.886719 260.285156 C 296.414062 266.945312 285.046875 273.554688 273.796875 280.105469 C 275.03125 281.511719 276.179688 283.304688 277.242188 285.488281 C 277.800781 286.605469 278.253906 287.753906 278.585938 288.929688 Z M 317.800781 448.308594 C 319.476562 451.054688 321.296875 453.855469 323.257812 456.710938 C 326.554688 454.75 329.855469 452.820312 333.160156 450.914062 C 332.714844 450.1875 332.320312 449.347656 331.988281 448.394531 C 330.695312 444.527344 329.828125 442.203125 329.382812 441.417969 C 325.460938 443.714844 321.605469 446.011719 317.800781 448.308594 Z M 440.375 592.566406 C 442.121094 593.667969 443.964844 595.066406 445.917969 596.769531 L 468.421875 583.746094 L 462.042969 580.042969 L 484.539062 567.019531 L 468.84375 557.988281 L 468.84375 537.617188 L 493.691406 523.253906 L 493.613281 523.167969 L 499.566406 519.722656 C 498.171875 518.992188 496.550781 518.042969 494.699219 516.867188 C 492.796875 515.804688 491.230469 514.878906 489.996094 514.089844 L 463.128906 529.632812 L 439.285156 515.4375 L 436.433594 517.117188 L 436.433594 503.003906 L 453.558594 512.832031 C 457.757812 515.238281 461.957031 515.238281 466.152344 512.832031 L 491.171875 498.214844 L 491.257812 498.214844 L 495.789062 495.691406 L 495.710938 495.609375 L 514.851562 484.519531 C 515.316406 484.246094 515.738281 483.964844 516.109375 483.679688 L 681.09375 579.039062 C 686.242188 581.894531 686.578125 584.664062 682.105469 587.355469 L 476.648438 706.066406 C 472.167969 708.585938 467.386719 708.363281 462.289062 705.398438 L 462.125 705.398438 L 277.660156 598.867188 L 277.492188 598.867188 L 274.722656 597.101562 C 237.335938 573.242188 210.132812 543.222656 193.109375 507.035156 L 125.777344 340.015625 C 123.480469 334.132812 124.519531 329.875 128.878906 327.242188 L 284.464844 237.429688 L 302.515625 247.847656 L 302.515625 227.011719 L 334.507812 208.53125 C 338.867188 206.007812 342.253906 207.65625 344.667969 213.484375 L 377.871094 295.648438 L 344.246094 314.972656 C 342.671875 315.933594 341.832031 316.875 341.726562 317.835938 C 341.726562 317.945312 341.726562 318.058594 341.726562 318.171875 L 341.726562 328.335938 C 341.222656 327.496094 340.71875 326.570312 340.214844 325.5625 C 339.039062 323.261719 338.226562 321.472656 337.78125 320.183594 C 315.386719 333.070312 293.671875 345.699219 272.625 358.078125 C 274.023438 361.328125 275.476562 364.378906 276.992188 367.234375 C 292.105469 358.273438 307.246094 349.308594 322.417969 340.347656 C 328.90625 336.746094 335.339844 333.121094 341.726562 329.464844 L 341.726562 364.882812 L 339.878906 363.28125 C 340.496094 361.773438 340.546875 360.179688 340.050781 358.496094 C 339.542969 356.363281 338.285156 354.800781 336.269531 353.792969 C 334.199219 352.726562 332.039062 352.582031 329.804688 353.371094 C 327.507812 354.101562 325.742188 355.496094 324.515625 357.570312 C 323.335938 359.585938 323.027344 361.6875 323.589844 363.875 C 324.148438 366 325.433594 367.601562 327.453125 368.664062 C 328.011719 368.828125 328.515625 369.027344 328.964844 369.25 L 329.71875 402.433594 C 328.542969 402.886719 327.535156 403.53125 326.695312 404.371094 L 308.5625 394.539062 C 308.785156 393.476562 308.726562 392.414062 308.394531 391.347656 C 307.722656 389.164062 306.433594 387.535156 304.53125 386.472656 C 302.457031 385.46875 300.273438 385.296875 297.984375 385.964844 C 295.6875 386.753906 293.949219 388.152344 292.773438 390.167969 C 291.542969 392.300781 291.207031 394.425781 291.765625 396.554688 C 292.382812 398.738281 293.699219 400.335938 295.714844 401.34375 C 297.726562 402.410156 299.886719 402.574219 302.179688 401.851562 C 303.914062 401.234375 305.367188 400.25 306.542969 398.910156 L 324.011719 408.488281 C 323.617188 409.886719 323.617188 411.34375 324.011719 412.851562 C 324.621094 415.039062 325.941406 416.632812 327.953125 417.644531 C 329.914062 418.707031 332.039062 418.851562 334.335938 418.0625 C 336.691406 417.394531 338.476562 416.015625 339.707031 413.949219 C 340.941406 411.875 341.222656 409.714844 340.546875 407.476562 C 339.988281 405.347656 338.730469 403.78125 336.769531 402.769531 C 336.042969 402.382812 335.285156 402.125 334.507812 402.015625 L 333.832031 369 C 335.0625 368.664062 336.125 368.125 337.023438 367.40625 L 341.726562 371.519531 L 341.726562 411.933594 C 341.726562 412.042969 341.726562 412.15625 341.726562 412.269531 L 341.726562 434.113281 C 339.050781 435.6875 336.390625 437.253906 333.75 438.816406 C 334.925781 440.886719 336.519531 443.886719 338.535156 447.804688 C 339.597656 447.167969 340.660156 446.535156 341.726562 445.914062 L 341.726562 458.8125 C 337.773438 461.199219 333.855469 463.558594 329.972656 465.867188 C 332.261719 468.667969 334.558594 471.464844 336.855469 474.269531 C 338.476562 473.296875 340.101562 472.332031 341.726562 471.375 L 341.726562 486.707031 L 339.707031 485.527344 L 339.792969 485.527344 L 322.914062 475.785156 L 322.914062 475.863281 L 318.007812 473.054688 C 317.714844 472.695312 317.417969 472.34375 317.125 472.003906 C 316.964844 472.089844 316.816406 472.175781 316.664062 472.253906 L 311.582031 469.3125 C 308.058594 467.351562 304.589844 467.351562 301.171875 469.3125 L 261.710938 492.082031 C 260.140625 492.976562 259.300781 493.925781 259.191406 494.9375 C 259.191406 494.992188 259.191406 495.074219 259.191406 495.1875 L 259.191406 505.058594 C 247.542969 511.871094 236.265625 518.605469 225.355469 525.269531 C 227.644531 528.011719 229.941406 530.757812 232.238281 533.5 C 241.238281 528.175781 250.21875 522.839844 259.191406 517.496094 L 259.191406 530.941406 C 252.75 534.78125 246.453125 538.574219 240.300781 542.320312 C 242.929688 545.066406 245.449219 547.839844 247.855469 550.636719 C 251.640625 548.28125 255.417969 545.945312 259.191406 543.628906 L 259.191406 557.195312 C 258.234375 557.804688 257.28125 558.421875 256.335938 559.039062 C 257.296875 560.003906 258.246094 560.957031 259.191406 561.902344 L 259.191406 566.390625 L 250.710938 571.308594 C 248.753906 572.371094 247.71875 573.464844 247.605469 574.582031 C 247.496094 574.863281 247.460938 575.148438 247.519531 575.421875 C 247.855469 576.484375 248.917969 577.523438 250.710938 578.535156 L 299.242188 606.429688 C 303.441406 608.832031 307.640625 608.832031 311.835938 606.429688 L 316.453125 603.738281 L 345.925781 620.625 L 401.925781 588.195312 L 388.03125 580.214844 L 394.28125 557.777344 C 394.425781 557.695312 394.5625 557.609375 394.703125 557.53125 L 409.566406 548.832031 L 409.566406 557.28125 L 393.277344 566.6875 L 439.371094 593.152344 L 440.375 592.566406 " fill-opacity="1" fill-rule="evenodd"/></g><path fill="#d6dff3" d="M 628.867188 566.140625 L 628.789062 566.101562 C 625.332031 564.101562 621.582031 562.503906 617.53125 561.308594 L 622.320312 558.539062 L 632.3125 564.164062 Z M 470.523438 624.914062 C 469.117188 624.074219 467.808594 623.371094 466.574219 622.8125 L 500.074219 603.316406 L 509.984375 609.027344 L 475.980469 628.695312 C 474.636719 627.511719 472.820312 626.253906 470.523438 624.914062 Z M 504.691406 655.492188 C 505.640625 656.273438 506.539062 657.003906 507.378906 657.679688 L 464.808594 682.378906 L 454.988281 676.660156 L 499.234375 651.121094 C 500.636719 652.296875 502.453125 653.753906 504.691406 655.492188 Z M 641.71875 582.230469 C 641.34375 579 640.011719 576 637.730469 573.242188 L 642.804688 570.304688 L 652.546875 575.929688 Z M 578.910156 607.308594 C 583.730469 608.574219 588.933594 609.304688 594.527344 609.496094 L 594.613281 609.535156 L 566.65625 625.753906 L 556.917969 620.035156 Z M 540.878906 626.929688 L 550.707031 632.554688 L 514.601562 653.476562 C 512.246094 651.679688 508.691406 649.972656 503.9375 648.351562 Z M 557.921875 595.796875 C 559.972656 598.074219 562.691406 600.1875 566.066406 602.144531 C 566.171875 602.203125 566.289062 602.253906 566.402344 602.308594 L 546.335938 613.992188 L 536.433594 608.273438 Z M 534.917969 585.675781 C 537.324219 587.242188 540.433594 589.207031 544.238281 591.554688 L 525.851562 602.144531 L 516.109375 596.511719 Z M 558.261719 572.023438 C 554.84375 575.621094 553.140625 579.636719 553.140625 584.078125 C 553.140625 584.835938 553.191406 585.578125 553.304688 586.304688 L 551.039062 587.605469 C 549.191406 586.488281 546.980469 585.28125 544.410156 583.996094 C 543.0625 583.324219 541.804688 582.734375 540.628906 582.230469 Z M 506.789062 515.605469 C 504.332031 512.914062 501.589844 510.730469 498.5625 509.050781 L 526.777344 492.667969 L 536.679688 498.382812 Z M 600.949219 558.703125 C 599.808594 558.644531 598.648438 558.621094 597.46875 558.621094 C 591.097656 558.621094 585.207031 559.296875 579.796875 560.640625 C 579.46875 560.488281 579.148438 560.34375 578.832031 560.222656 L 602 546.691406 L 611.828125 552.402344 Z M 438.363281 601.046875 L 425.347656 608.53125 L 425.433594 608.609375 L 382.449219 633.480469 L 372.707031 627.855469 L 431.394531 593.828125 C 432.964844 595.84375 434.78125 597.832031 436.851562 599.785156 C 437.359375 600.234375 437.855469 600.652344 438.363281 601.046875 Z M 446.59375 622.136719 L 430.472656 631.464844 C 428.851562 630.453125 426.804688 629.363281 424.34375 628.1875 C 422.71875 627.402344 421.261719 626.730469 419.976562 626.171875 L 479.757812 591.554688 L 489.578125 597.265625 L 446.507812 622.050781 Z M 419.976562 633.230469 C 421.039062 634.179688 422.101562 635.019531 423.164062 635.75 L 403.601562 647.007812 L 393.785156 641.375 L 415.1875 628.941406 C 416.308594 630.007812 417.902344 631.4375 419.976562 633.230469 Z M 440.375 592.566406 L 462.042969 580.042969 L 468.421875 583.746094 L 445.917969 596.769531 C 443.964844 595.066406 442.121094 593.667969 440.375 592.566406 Z M 259.191406 561.902344 C 258.246094 560.957031 257.296875 560.003906 256.335938 559.039062 C 257.28125 558.421875 258.234375 557.804688 259.191406 557.195312 Z M 259.191406 543.628906 C 255.417969 545.945312 251.640625 548.28125 247.855469 550.636719 C 245.449219 547.839844 242.929688 545.066406 240.300781 542.320312 C 246.453125 538.574219 252.75 534.78125 259.191406 530.941406 Z M 218.300781 463.765625 C 218.75 465.222656 219.25 466.542969 219.8125 467.71875 C 213.148438 471.523438 206.605469 475.363281 200.167969 479.222656 C 198.9375 475.921875 197.789062 472.757812 196.726562 469.734375 C 203.160156 465.867188 209.710938 462.035156 216.371094 458.21875 C 216.816406 459.625 217.460938 461.46875 218.300781 463.765625 Z M 228.125 506.109375 C 228.683594 507.289062 229.300781 508.378906 229.976562 509.390625 C 226.164062 511.6875 222.386719 513.925781 218.640625 516.113281 C 216.679688 513.25 214.886719 510.453125 213.261719 507.710938 C 217.40625 505.300781 221.546875 502.835938 225.691406 500.3125 C 226.359375 502.386719 227.175781 504.316406 228.125 506.109375 Z M 244.414062 496.449219 C 245.140625 497.742188 245.78125 498.832031 246.347656 499.730469 C 242.757812 501.796875 239.210938 503.871094 235.679688 505.945312 C 233.496094 502.300781 231.484375 499.609375 229.632812 497.878906 C 233.667969 495.46875 237.753906 493.0625 241.894531 490.652344 C 242.570312 492.503906 243.410156 494.433594 244.414062 496.449219 Z M 256.003906 434.953125 C 256.226562 436.460938 256.730469 438.476562 257.511719 440.996094 C 257.90625 442.511719 258.378906 443.773438 258.941406 444.777344 C 254.574219 447.1875 250.261719 449.65625 246.007812 452.175781 C 239.570312 455.980469 233.136719 459.789062 226.695312 463.601562 C 226.359375 462.421875 225.914062 461.277344 225.355469 460.15625 C 224.289062 457.972656 223.148438 456.179688 221.914062 454.78125 C 233.164062 448.222656 244.523438 441.613281 256.003906 434.953125 Z M 280.09375 456.289062 C 278.863281 453.324219 277.214844 450.519531 275.144531 447.890625 C 282.699219 443.519531 290.316406 439.152344 297.984375 434.78125 C 299.269531 437.636719 300.554688 440.695312 301.847656 443.9375 C 294.566406 448.085938 287.316406 452.203125 280.09375 456.289062 Z M 290.257812 415.628906 C 291.429688 418.652344 292.691406 421.757812 294.035156 424.957031 C 284.40625 430.382812 274.835938 435.792969 265.316406 441.167969 C 264.476562 438.425781 262.910156 435.535156 260.621094 432.515625 C 270.414062 426.800781 280.292969 421.175781 290.257812 415.628906 Z M 316.664062 472.253906 C 316.816406 472.175781 316.964844 472.089844 317.125 472.003906 C 317.417969 472.34375 317.714844 472.695312 318.007812 473.054688 Z M 341.726562 445.914062 C 340.660156 446.535156 339.597656 447.167969 338.535156 447.804688 C 336.519531 443.886719 334.925781 440.886719 333.75 438.816406 C 336.390625 437.253906 339.050781 435.6875 341.726562 434.113281 Z M 317.800781 448.308594 C 321.605469 446.011719 325.460938 443.714844 329.382812 441.417969 C 329.828125 442.203125 330.695312 444.527344 331.988281 448.394531 C 332.320312 449.347656 332.714844 450.1875 333.160156 450.914062 C 329.855469 452.820312 326.554688 454.75 323.257812 456.710938 C 321.296875 453.855469 319.476562 451.054688 317.800781 448.308594 Z M 341.726562 458.8125 L 341.726562 471.375 C 340.101562 472.332031 338.476562 473.296875 336.855469 474.269531 C 334.558594 471.464844 332.261719 468.667969 329.972656 465.867188 C 333.855469 463.558594 337.773438 461.199219 341.726562 458.8125 Z M 342.148438 240.960938 C 343.320312 243.980469 344.582031 247.089844 345.925781 250.28125 C 336.296875 255.714844 326.71875 261.125 317.207031 266.5 C 316.371094 263.757812 314.800781 260.867188 312.503906 257.84375 C 322.300781 252.132812 332.175781 246.5 342.148438 240.960938 Z M 331.988281 281.625 C 330.753906 278.648438 329.101562 275.855469 327.035156 273.222656 C 334.589844 268.851562 342.199219 264.484375 349.867188 260.113281 C 351.152344 262.96875 352.445312 266.019531 353.730469 269.269531 C 346.449219 273.417969 339.210938 277.535156 331.988281 281.625 Z M 358.941406 284.648438 C 360.113281 287.667969 361.375 290.78125 362.71875 293.96875 C 353.089844 299.402344 343.511719 304.8125 334 310.1875 C 333.160156 307.445312 331.59375 304.558594 329.296875 301.53125 C 339.089844 295.820312 348.96875 290.1875 358.941406 284.648438 Z M 294.035156 329.175781 C 292.972656 326.992188 291.824219 325.199219 290.589844 323.796875 C 301.847656 317.246094 313.207031 310.636719 324.679688 303.972656 C 324.902344 305.480469 325.410156 307.496094 326.195312 310.019531 C 326.582031 311.535156 327.0625 312.792969 327.617188 313.796875 C 323.257812 316.207031 318.941406 318.675781 314.691406 321.195312 C 308.25 325.003906 301.8125 328.808594 295.378906 332.617188 C 295.042969 331.441406 294.59375 330.292969 294.035156 329.175781 Z M 286.984375 332.789062 C 287.429688 334.246094 287.933594 335.558594 288.492188 336.738281 C 281.832031 340.546875 275.28125 344.378906 268.847656 348.246094 C 267.613281 344.945312 266.464844 341.78125 265.402344 338.753906 C 271.84375 334.886719 278.390625 331.054688 285.046875 327.242188 C 285.5 328.640625 286.144531 330.488281 286.984375 332.789062 Z M 278.585938 288.929688 C 278.253906 287.753906 277.800781 286.605469 277.242188 285.488281 C 276.179688 283.304688 275.03125 281.511719 273.796875 280.105469 C 285.046875 273.554688 296.414062 266.945312 307.886719 260.285156 C 308.109375 261.792969 308.617188 263.808594 309.402344 266.328125 C 309.789062 267.847656 310.269531 269.105469 310.828125 270.109375 C 306.464844 272.519531 302.148438 274.988281 297.898438 277.507812 C 291.457031 281.316406 285.023438 285.121094 278.585938 288.929688 Z M 252.054688 304.558594 C 250.820312 301.253906 249.671875 298.089844 248.609375 295.066406 C 255.050781 291.199219 261.597656 287.367188 268.253906 283.554688 C 268.707031 284.949219 269.351562 286.800781 270.191406 289.097656 C 270.636719 290.554688 271.140625 291.867188 271.699219 293.050781 C 265.042969 296.859375 258.488281 300.691406 252.054688 304.558594 " fill-opacity="1" fill-rule="evenodd"/><g clip-path="url(#1ad99acb33)"><path fill="#f13ea7" d="M 520.480469 615.164062 L 530.382812 620.789062 L 487.316406 645.660156 L 487.394531 645.746094 L 466.824219 657.679688 C 465.648438 656.617188 464.253906 655.40625 462.625 654.0625 C 461.117188 652.886719 459.773438 651.875 458.597656 651.035156 Z M 540.542969 533.078125 L 526.519531 541.0625 C 526.519531 541.003906 526.496094 540.976562 526.433594 540.976562 C 526.269531 540.863281 526.074219 540.753906 525.851562 540.640625 C 523.445312 539.355469 520.589844 538.652344 517.285156 538.539062 C 513.875 538.488281 510.933594 539.132812 508.46875 540.476562 C 508.359375 540.53125 508.246094 540.582031 508.132812 540.640625 C 507.964844 540.753906 507.714844 540.898438 507.378906 541.0625 L 492.429688 532.074219 C 497.082031 529.382812 502.429688 527.703125 508.46875 527.035156 C 510.988281 526.691406 513.652344 526.554688 516.445312 526.613281 C 519.75 526.726562 522.886719 527 525.851562 527.453125 C 531.394531 528.519531 536.320312 530.363281 540.628906 532.996094 Z M 444.410156 670.617188 L 434.582031 664.898438 L 452.300781 654.652344 C 452.96875 655.65625 453.78125 656.722656 454.734375 657.84375 C 456.136719 659.582031 457.535156 661.066406 458.933594 662.300781 Z M 259.191406 505.058594 L 259.191406 517.496094 C 250.21875 522.839844 241.238281 528.175781 232.238281 533.5 C 229.941406 530.757812 227.644531 528.011719 225.355469 525.269531 C 236.265625 518.605469 247.542969 511.871094 259.191406 505.058594 Z M 468.84375 537.617188 L 468.84375 532.996094 L 439.203125 550.386719 L 409.566406 532.996094 L 436.433594 517.117188 L 439.285156 515.4375 L 463.128906 529.632812 L 489.996094 514.089844 C 491.230469 514.878906 492.796875 515.804688 494.699219 516.867188 C 496.550781 518.042969 498.171875 518.992188 499.566406 519.722656 L 493.613281 523.167969 L 493.691406 523.253906 Z M 260.199219 323.546875 C 258.6875 320.691406 257.230469 317.636719 255.832031 314.390625 C 276.882812 302.011719 298.59375 289.382812 320.988281 276.496094 C 321.433594 277.785156 322.246094 279.574219 323.421875 281.871094 C 324.097656 283.21875 324.765625 284.425781 325.433594 285.488281 C 318.886719 289.238281 312.28125 292.964844 305.625 296.660156 C 290.453125 305.621094 275.3125 314.585938 260.199219 323.546875 Z M 175.144531 345.640625 C 175.144531 345.808594 175.171875 345.949219 175.230469 346.058594 L 210.160156 350.097656 L 210.242188 350.179688 L 184.132812 381.097656 C 184.867188 381.96875 185.632812 382.785156 186.441406 383.53125 C 183.652344 381.058594 181.257812 378.039062 179.257812 374.460938 C 174.390625 365.949219 172.847656 356.3125 174.640625 345.558594 Z M 211.792969 348.082031 L 232.574219 315.984375 C 238.789062 320.855469 243.042969 327.523438 245.335938 335.976562 C 247.410156 344.550781 246.957031 353.285156 243.992188 362.191406 L 243.828125 362.191406 L 210.664062 351.269531 L 210.664062 350.097656 L 210.40625 350.011719 L 210.578125 350.011719 L 210.578125 349.761719 L 210.664062 350.011719 L 210.742188 349.761719 Z M 233.753906 194.074219 C 234.085938 194.246094 234.421875 194.382812 234.757812 194.496094 L 235.089844 194.667969 C 238.398438 196.734375 240.050781 200.460938 240.050781 205.839844 C 240.050781 211.496094 238.285156 217.316406 234.757812 223.316406 L 234.671875 223.316406 L 221.789062 216.089844 L 221.742188 216.089844 L 221.828125 216.003906 L 221.828125 196.089844 L 221.742188 195.839844 C 226.386719 193.210938 230.394531 192.617188 233.753906 194.074219 Z M 560.019531 109.640625 L 502.925781 156.441406 L 491.257812 149.382812 L 548.351562 102.5 Z M 454.066406 371.605469 L 505.320312 187.355469 L 506.664062 182.570312 L 510.902344 167.277344 L 520.644531 173.15625 L 520.8125 173.242188 L 521.398438 173.914062 L 497.554688 259.101562 L 497.726562 259.101562 L 462.375 385.296875 L 452.96875 375.464844 L 454.066406 371.605469 " fill-opacity="1" fill-rule="evenodd"/></g><path fill="#9cc1e9" d="M 424.003906 658.769531 L 414.183594 653.136719 L 461.871094 625.582031 C 462.933594 626.535156 464.304688 627.734375 465.984375 629.191406 C 467.328125 630.375 468.535156 631.410156 469.597656 632.304688 L 466.910156 633.898438 L 466.992188 633.984375 Z M 271.535156 456.539062 C 272.203125 457.886719 272.875 459.09375 273.550781 460.15625 C 266.996094 463.90625 260.390625 467.632812 253.734375 471.328125 C 238.5625 480.289062 223.421875 489.253906 208.308594 498.214844 C 206.800781 495.359375 205.34375 492.304688 203.945312 489.058594 C 224.988281 476.675781 246.707031 464.050781 269.09375 451.164062 C 269.546875 452.457031 270.355469 454.242188 271.535156 456.539062 Z M 341.726562 328.335938 L 341.726562 329.464844 C 335.339844 333.121094 328.90625 336.746094 322.417969 340.347656 C 307.246094 349.308594 292.105469 358.273438 276.992188 367.234375 C 275.476562 364.378906 274.023438 361.328125 272.625 358.078125 C 293.671875 345.699219 315.386719 333.070312 337.78125 320.183594 C 338.226562 321.472656 339.039062 323.261719 340.214844 325.5625 C 340.71875 326.570312 341.222656 327.496094 341.726562 328.335938 " fill-opacity="1" fill-rule="evenodd"/><path fill="#959595" d="M 275.3125 376.894531 C 276.316406 379.863281 277.578125 382.914062 279.09375 386.050781 C 263.363281 395.011719 247.855469 403.917969 232.574219 412.773438 L 232.574219 412.9375 C 217.074219 421.898438 201.675781 430.914062 186.394531 439.992188 C 185.390625 436.96875 184.242188 433.855469 182.957031 430.664062 C 213.515625 412.40625 244.300781 394.488281 275.3125 376.894531 " fill-opacity="1" fill-rule="evenodd"/><path fill="#cdccca" d="M 236.015625 423.105469 C 236.238281 424.449219 236.582031 426.4375 237.027344 429.070312 C 237.472656 430.582031 237.953125 431.925781 238.449219 433.101562 C 228.433594 438.816406 218.445312 444.667969 208.480469 450.660156 C 207.863281 449.261719 207.160156 447.691406 206.378906 445.960938 C 205.703125 444.160156 205.09375 442.675781 204.53125 441.503906 C 214.941406 435.285156 225.4375 429.15625 236.015625 423.105469 Z M 193.109375 459.566406 C 191.996094 456.375 190.960938 453.238281 190.007812 450.160156 C 193.589844 447.972656 197.144531 445.839844 200.667969 443.773438 C 200.949219 445 201.59375 447.132812 202.601562 450.160156 C 202.9375 451.386719 203.332031 452.425781 203.777344 453.265625 C 200.246094 455.449219 196.699219 457.550781 193.109375 459.566406 Z M 282.871094 396.046875 C 284.097656 399.132812 285.304688 402.269531 286.476562 405.460938 C 283.734375 406.972656 281.046875 408.539062 278.417969 410.167969 C 277.019531 406.25 275.734375 403.078125 274.554688 400.667969 C 277.355469 399.160156 280.121094 397.617188 282.871094 396.046875 Z M 270.277344 403.273438 C 270.5 404.398438 270.917969 406.164062 271.535156 408.574219 C 271.980469 410.417969 272.488281 411.984375 273.042969 413.273438 C 263.414062 418.652344 253.871094 424.03125 244.414062 429.40625 C 243.964844 428.285156 243.347656 426.910156 242.570312 425.289062 C 241.617188 423.328125 240.804688 421.792969 240.128906 420.667969 C 250.152344 414.789062 260.199219 408.992188 270.277344 403.273438 " fill-opacity="1" fill-rule="evenodd"/><path fill="#ef277b" d="M 341.726562 364.882812 L 341.726562 371.519531 L 337.023438 367.40625 C 336.125 368.125 335.0625 368.664062 333.832031 369 L 334.507812 402.015625 C 335.285156 402.125 336.042969 402.382812 336.769531 402.769531 C 338.730469 403.78125 339.988281 405.347656 340.546875 407.476562 C 341.222656 409.714844 340.941406 411.875 339.707031 413.949219 C 338.476562 416.015625 336.691406 417.394531 334.335938 418.0625 C 332.039062 418.851562 329.914062 418.707031 327.953125 417.644531 C 325.941406 416.632812 324.621094 415.039062 324.011719 412.851562 C 323.617188 411.34375 323.617188 409.886719 324.011719 408.488281 L 306.542969 398.910156 C 305.367188 400.25 303.914062 401.234375 302.179688 401.851562 C 299.886719 402.574219 297.726562 402.410156 295.714844 401.34375 C 293.699219 400.335938 292.382812 398.738281 291.765625 396.554688 C 291.207031 394.425781 291.542969 392.300781 292.773438 390.167969 C 293.949219 388.152344 295.6875 386.753906 297.984375 385.964844 C 300.273438 385.296875 302.457031 385.46875 304.53125 386.472656 C 306.433594 387.535156 307.722656 389.164062 308.394531 391.347656 C 308.726562 392.414062 308.785156 393.476562 308.5625 394.539062 L 326.695312 404.371094 C 327.535156 403.53125 328.542969 402.886719 329.71875 402.433594 L 328.964844 369.25 C 328.515625 369.027344 328.011719 368.828125 327.453125 368.664062 C 325.433594 367.601562 324.148438 366 323.589844 363.875 C 323.027344 361.6875 323.335938 359.585938 324.515625 357.570312 C 325.742188 355.496094 327.507812 354.101562 329.804688 353.371094 C 332.039062 352.582031 334.199219 352.726562 336.269531 353.792969 C 338.285156 354.800781 339.542969 356.363281 340.050781 358.496094 C 340.546875 360.179688 340.496094 361.773438 339.878906 363.28125 L 341.726562 364.882812 " fill-opacity="1" fill-rule="evenodd"/><path fill="#fbd01c" d="M 249.285156 213.820312 L 286.230469 192.816406 L 286.230469 186.429688 L 249.285156 207.519531 Z M 309.316406 161.644531 L 249.535156 195.839844 L 249.535156 202.226562 L 309.316406 167.945312 Z M 309.316406 148.792969 L 249.535156 182.988281 L 249.535156 189.457031 L 309.316406 155.09375 Z M 234.757812 194.496094 L 233.832031 193.992188 L 233.753906 194.074219 C 230.394531 192.617188 226.386719 193.210938 221.742188 195.839844 L 221.828125 196.089844 C 216.960938 198.894531 212.761719 203.207031 209.234375 209.035156 C 205.703125 214.96875 203.972656 220.738281 204.027344 226.335938 C 203.972656 231.773438 205.566406 235.5 208.8125 237.515625 C 208.984375 237.566406 209.148438 237.652344 209.320312 237.765625 L 209.40625 237.679688 C 212.875 239.417969 217.074219 238.9375 222 236.253906 C 226.976562 233.453125 231.203125 229.140625 234.671875 223.316406 L 234.757812 223.316406 C 238.285156 217.316406 240.050781 211.496094 240.050781 205.839844 C 240.050781 200.460938 238.398438 196.734375 235.089844 194.667969 Z M 302.515625 227.011719 L 302.515625 247.847656 L 284.464844 237.429688 L 269.265625 228.609375 L 201.257812 267.847656 C 198.910156 269.183594 197.144531 269.578125 195.972656 269.019531 C 195.859375 268.960938 195.773438 268.910156 195.714844 268.851562 C 194.539062 268.121094 193.949219 266.414062 193.949219 263.722656 L 193.949219 198.953125 C 193.949219 193.347656 196.390625 189.148438 201.257812 186.351562 L 316.121094 119.976562 C 318.507812 118.585938 320.3125 118.21875 321.53125 118.882812 L 321.65625 118.882812 C 322.835938 119.609375 323.421875 121.375 323.421875 124.179688 L 323.421875 188.949219 C 323.421875 194.496094 320.988281 198.695312 316.121094 201.550781 L 302.515625 209.371094 L 302.515625 227.011719 " fill-opacity="1" fill-rule="evenodd"/><path fill="#f25c19" d="M 321.53125 118.882812 C 320.3125 118.21875 318.507812 118.585938 316.121094 119.976562 L 201.257812 186.351562 C 196.390625 189.148438 193.949219 193.347656 193.949219 198.953125 L 193.949219 263.722656 C 193.949219 266.414062 194.539062 268.121094 195.714844 268.851562 L 187.652344 264.316406 L 187.574219 264.316406 C 186.394531 263.585938 185.808594 261.820312 185.808594 259.023438 L 185.808594 194.246094 C 185.808594 188.699219 188.242188 184.5 193.109375 181.644531 L 307.972656 115.355469 C 310.378906 113.953125 312.199219 113.589844 313.429688 114.261719 L 321.53125 118.882812 " fill-opacity="1" fill-rule="evenodd"/><g clip-path="url(#1499ed145c)"><g clip-path="url(#b2f4bef9d9)"><path fill="#59812b" d="M 233.53125 194.371094 L 234.507812 194.9375 L 234.972656 194.121094 L 234.003906 193.558594 Z M 233.53125 194.371094 " fill-opacity="1" fill-rule="nonzero"/></g></g><path fill="#97bce7" d="M 541.050781 561.308594 L 525.765625 552.152344 C 526.046875 552.042969 526.324219 551.925781 526.605469 551.820312 C 529.125 550.363281 530.382812 548.5625 530.382812 546.4375 C 530.332031 544.363281 529.039062 542.578125 526.519531 541.0625 L 540.542969 533.078125 C 546.703125 536.722656 550.0625 540.976562 550.621094 545.851562 C 550.730469 546.300781 550.785156 546.777344 550.785156 547.277344 C 550.84375 552.765625 547.597656 557.445312 541.050781 561.308594 Z M 195.628906 314.390625 L 210.160156 350.097656 L 175.230469 346.058594 C 175.171875 345.949219 175.144531 345.808594 175.144531 345.640625 C 176.320312 338.976562 178.757812 332.898438 182.453125 327.410156 C 186.03125 321.917969 190.429688 317.578125 195.628906 314.390625 Z M 216.542969 389.582031 L 210.664062 351.269531 L 243.828125 362.191406 C 240.359375 371.882812 234.558594 379.417969 226.445312 384.792969 C 223.148438 387.03125 219.839844 388.632812 216.542969 389.582031 Z M 221.789062 216.089844 L 209.0625 237.515625 C 209.175781 237.566406 209.292969 237.625 209.40625 237.679688 L 209.320312 237.765625 C 209.148438 237.652344 208.984375 237.566406 208.8125 237.515625 C 205.566406 235.5 203.972656 231.773438 204.027344 226.335938 C 203.972656 220.738281 205.703125 214.96875 209.234375 209.035156 C 212.761719 203.207031 216.960938 198.894531 221.828125 196.089844 L 221.828125 216.003906 L 221.742188 216.089844 L 221.789062 216.089844 " fill-opacity="1" fill-rule="evenodd"/><path fill="#ffffff" d="M 309.316406 148.792969 L 309.316406 155.09375 L 249.535156 189.457031 L 249.535156 182.988281 Z M 309.316406 161.644531 L 309.316406 167.945312 L 249.535156 202.226562 L 249.535156 195.839844 Z M 249.285156 213.820312 L 249.285156 207.519531 L 286.230469 186.429688 L 286.230469 192.816406 Z M 234.671875 223.316406 C 231.203125 229.140625 226.976562 233.453125 222 236.253906 C 217.074219 238.9375 212.875 239.417969 209.40625 237.679688 C 209.292969 237.625 209.175781 237.566406 209.0625 237.515625 L 221.789062 216.089844 L 234.671875 223.316406 " fill-opacity="1" fill-rule="evenodd"/><path fill="#968bcd" d="M 508.382812 551.5625 L 492.851562 560.46875 C 486.132812 556.382812 482.75 551.5625 482.695312 546.015625 C 482.636719 545.964844 482.636719 545.878906 482.695312 545.765625 C 482.636719 540.445312 485.886719 535.882812 492.429688 532.074219 L 507.378906 541.0625 C 505.367188 542.40625 504.382812 544.035156 504.441406 545.9375 C 504.441406 548.066406 505.726562 549.882812 508.304688 551.398438 C 508.359375 551.453125 508.382812 551.503906 508.382812 551.5625 Z M 210.664062 351.269531 L 216.542969 389.582031 L 216.621094 389.667969 C 210.691406 391.460938 204.839844 391.625 199.074219 390.167969 C 198.738281 390.054688 198.40625 389.96875 198.070312 389.917969 C 195.9375 389.300781 193.984375 388.460938 192.191406 387.398438 L 187.910156 384.792969 L 186.441406 383.53125 C 185.632812 382.785156 184.867188 381.96875 184.132812 381.097656 L 210.242188 350.179688 L 210.492188 349.761719 L 210.578125 350.011719 L 210.40625 350.011719 L 210.664062 350.179688 L 210.664062 351.269531 " fill-opacity="1" fill-rule="evenodd"/><path fill="#fbc907" d="M 492.851562 560.46875 L 508.382812 551.5625 C 510.960938 552.960938 514.011719 553.695312 517.539062 553.75 C 520.675781 553.859375 523.417969 553.328125 525.765625 552.152344 L 541.050781 561.308594 C 534.445312 565.117188 526.433594 566.941406 517.035156 566.769531 C 507.578125 566.601562 499.488281 564.5 492.773438 560.46875 Z M 232.574219 315.984375 L 211.792969 348.082031 L 210.742188 349.675781 L 210.578125 349.761719 L 210.578125 350.011719 L 210.492188 349.761719 L 210.242188 350.179688 L 210.160156 350.097656 L 195.628906 314.390625 L 195.550781 314.304688 C 195.664062 314.304688 195.773438 314.277344 195.886719 314.21875 C 195.9375 314.167969 195.996094 314.105469 196.050781 314.054688 C 202.15625 310.472656 208.453125 308.757812 214.941406 308.929688 C 217.570312 309.039062 220.121094 309.484375 222.582031 310.273438 C 226.222656 311.226562 229.691406 312.992188 232.992188 315.5625 L 232.574219 315.984375 " fill-opacity="1" fill-rule="evenodd"/><g clip-path="url(#1696839a83)"><g clip-path="url(#5502a6bcc3)"><g clip-path="url(#8d872a8426)"><path fill="url(#bce6a4e6b2)" d="M 210.273438 349.601562 L 211.691406 350.089844 L 212.257812 348.242188 L 210.84375 347.753906 Z M 210.273438 349.601562 " fill-rule="nonzero"/></g></g></g><path fill="#fac009" d="M 210.664062 350.179688 L 210.40625 350.011719 L 210.664062 350.097656 Z M 210.742188 349.761719 L 210.664062 350.011719 L 210.578125 349.761719 L 210.742188 349.675781 L 210.742188 349.761719 " fill-opacity="1" fill-rule="evenodd"/><path fill="#cee1f5" d="M 594.527344 609.496094 C 588.933594 609.304688 583.730469 608.574219 578.910156 607.308594 C 574.390625 606.121094 570.21875 604.453125 566.402344 602.308594 C 566.289062 602.253906 566.171875 602.203125 566.066406 602.144531 C 562.691406 600.1875 559.972656 598.074219 557.921875 595.796875 C 555.304688 592.894531 553.761719 589.730469 553.304688 586.304688 C 553.191406 585.578125 553.140625 584.835938 553.140625 584.078125 C 553.140625 579.636719 554.84375 575.621094 558.261719 572.023438 C 560.269531 569.902344 562.875 567.925781 566.066406 566.101562 C 570.238281 563.707031 574.8125 561.882812 579.796875 560.640625 C 585.207031 559.296875 591.097656 558.621094 597.46875 558.621094 C 598.648438 558.621094 599.808594 558.644531 600.949219 558.703125 C 606.941406 558.941406 612.46875 559.808594 617.53125 561.308594 C 621.582031 562.503906 625.332031 564.101562 628.789062 566.101562 L 628.867188 566.140625 C 632.660156 568.308594 635.609375 570.675781 637.730469 573.242188 C 640.011719 576 641.34375 579 641.71875 582.230469 C 641.769531 582.839844 641.804688 583.457031 641.804688 584.078125 C 641.804688 591.136719 637.460938 597.15625 628.789062 602.144531 C 620.167969 607.074219 609.726562 609.535156 597.46875 609.535156 C 596.484375 609.535156 595.507812 609.519531 594.527344 609.496094 Z M 259.191406 566.390625 L 259.191406 574.503906 C 259.191406 575.566406 260.03125 576.605469 261.710938 577.609375 L 301.589844 600.378906 C 304.824219 602.339844 308.058594 602.464844 311.292969 600.757812 L 316.453125 603.738281 L 311.835938 606.429688 C 307.640625 608.832031 303.441406 608.832031 299.242188 606.429688 L 250.710938 578.535156 C 248.917969 577.523438 247.855469 576.484375 247.519531 575.421875 C 247.460938 575.148438 247.496094 574.863281 247.605469 574.582031 C 247.71875 573.464844 248.753906 572.371094 250.710938 571.308594 Z M 409.566406 548.832031 L 394.703125 557.53125 C 394.5625 557.609375 394.425781 557.695312 394.28125 557.777344 L 396.34375 550.386719 L 409.566406 542.742188 Z M 506.664062 182.570312 L 505.320312 187.355469 C 505.28125 187.386719 505.242188 187.414062 505.195312 187.441406 L 465.648438 210.296875 C 462.238281 212.25 458.820312 212.277344 455.410156 210.375 L 434.917969 198.53125 L 434.839844 198.53125 L 431.308594 196.433594 L 431.394531 196.347656 L 415.605469 187.355469 C 413.941406 186.355469 413.101562 185.492188 413.089844 184.75 L 413.089844 184.5 C 413.089844 184.386719 413.089844 184.277344 413.089844 184.164062 C 413.207031 183.214844 414.046875 182.289062 415.605469 181.386719 L 455.070312 158.539062 C 458.484375 156.636719 461.957031 156.636719 465.484375 158.539062 L 476.820312 165.175781 L 476.820312 165.089844 L 493.777344 174.835938 L 493.691406 174.835938 L 505.195312 181.644531 C 505.78125 181.960938 506.273438 182.269531 506.664062 182.570312 Z M 516.109375 483.679688 C 515.738281 483.964844 515.316406 484.246094 514.851562 484.519531 L 495.710938 495.609375 L 495.789062 495.691406 L 491.257812 498.214844 L 491.171875 498.214844 L 466.152344 512.832031 C 461.957031 515.238281 457.757812 515.238281 453.558594 512.832031 L 436.433594 503.003906 L 436.433594 495.988281 L 455.488281 506.871094 C 458.90625 508.9375 462.324219 508.972656 465.734375 506.949219 L 505.28125 484.1875 C 507.296875 483.003906 508.109375 481.863281 507.714844 480.742188 L 507.800781 474.6875 L 507.714844 474.773438 C 507.828125 474.4375 507.828125 474.132812 507.714844 473.847656 L 507.714844 473.09375 L 514.851562 477.210938 C 517.035156 478.503906 518.097656 479.761719 518.039062 480.988281 C 518 481.863281 517.355469 482.753906 516.109375 483.679688 " fill-opacity="1" fill-rule="evenodd"/><g clip-path="url(#05985c4e2c)"><g clip-path="url(#83b893987c)"><path fill="url(#eff92f6956)" d="M 413.089844 184.75 L 413.089844 371.605469 L 507.800781 371.605469 L 507.800781 184.75 Z M 413.089844 184.75 " fill-rule="nonzero"/></g></g><g clip-path="url(#9eeb70d2ac)"><g clip-path="url(#71faa3893a)"><path fill="url(#7d231b1eee)" d="M 436.433594 328.96875 L 436.433594 508.972656 L 508.109375 508.972656 L 508.109375 328.96875 Z M 436.433594 328.96875 " fill-rule="nonzero"/></g></g><path fill="#e2dcf1" d="M 341.726562 318.503906 L 341.726562 318.171875 C 341.726562 318.058594 341.726562 317.945312 341.726562 317.835938 C 341.832031 316.875 342.671875 315.933594 344.246094 314.972656 L 377.871094 295.648438 L 383.707031 292.289062 C 387.171875 290.273438 390.648438 290.273438 394.117188 292.289062 L 405.53125 298.847656 L 405.53125 298.761719 L 413.089844 303.132812 L 422.410156 308.507812 L 422.324219 308.507812 L 433.828125 315.230469 C 435.398438 316.121094 436.261719 316.996094 436.433594 317.835938 C 436.433594 317.886719 436.433594 317.972656 436.433594 318.085938 C 436.484375 318.195312 436.519531 318.335938 436.519531 318.503906 L 436.519531 318.589844 L 436.433594 318.675781 C 436.152344 319.457031 435.285156 320.269531 433.828125 321.109375 L 411.285156 334.171875 L 401.253906 328.082031 L 397.265625 342.277344 L 394.367188 343.957031 C 390.949219 345.921875 387.511719 345.949219 384.042969 344.042969 L 363.636719 332.117188 L 363.558594 332.117188 L 359.945312 330.097656 L 360.027344 330.015625 L 344.246094 321.023438 C 342.574219 320.027344 341.734375 319.1875 341.726562 318.503906 " fill-opacity="1" fill-rule="evenodd"/><g clip-path="url(#0aec026847)"><g clip-path="url(#38219827d0)"><path fill="url(#dd539b1ce1)" d="M 341.726562 431.464844 L 341.726562 550.386719 L 436.433594 550.386719 L 436.433594 431.464844 Z M 341.726562 431.464844 " fill-rule="nonzero"/></g></g><g clip-path="url(#4761d3fa1f)"><g clip-path="url(#d2cf1d949a)"><path fill="url(#afb298df2a)" d="M 259.191406 495.527344 L 259.191406 602.464844 L 340.804688 602.464844 L 340.804688 495.527344 Z M 259.191406 495.527344 " fill-rule="nonzero"/></g></g><path fill="#fae146" d="M 340.804688 504.179688 L 311.75 520.984375 C 308.335938 522.945312 304.921875 522.972656 301.503906 521.066406 L 281.105469 509.21875 L 280.933594 509.21875 L 277.414062 507.121094 L 277.414062 507.035156 L 261.710938 498.128906 C 260.042969 497.078125 259.203125 496.203125 259.191406 495.527344 L 259.191406 495.1875 C 259.191406 495.074219 259.191406 494.992188 259.191406 494.9375 C 259.300781 493.925781 260.140625 492.976562 261.710938 492.082031 L 301.171875 469.3125 C 304.589844 467.351562 308.058594 467.351562 311.582031 469.3125 L 316.664062 472.253906 L 318.007812 473.054688 L 322.914062 475.863281 L 322.914062 475.785156 L 339.792969 485.527344 L 339.707031 485.527344 L 341.726562 486.707031 L 351.296875 492.246094 C 352.09375 492.707031 352.695312 493.152344 353.101562 493.59375 L 345.085938 488.972656 L 341.097656 503.550781 L 340.96875 503.589844 L 340.804688 504.179688 " fill-opacity="1" fill-rule="evenodd"/><path fill="#d2e1f5" d="M 440.375 592.566406 L 439.371094 593.152344 L 393.277344 566.6875 L 409.566406 557.28125 L 409.566406 566.4375 L 439.203125 583.910156 L 439.285156 583.910156 L 468.84375 566.4375 L 468.84375 557.988281 L 484.539062 567.019531 L 462.042969 580.042969 Z M 316.453125 603.738281 L 311.292969 600.757812 C 311.46875 600.667969 311.652344 600.566406 311.835938 600.464844 L 314.605469 598.867188 L 314.183594 600.378906 L 327.199219 592.902344 L 323.925781 604.578125 L 338.867188 613.398438 L 343.40625 613.398438 L 385.636719 588.785156 L 388.03125 580.214844 L 401.925781 588.195312 L 345.925781 620.625 L 316.453125 603.738281 " fill-opacity="1" fill-rule="evenodd"/><g clip-path="url(#5d9a050a1b)"><g clip-path="url(#118e8523fc)"><path fill="url(#656531cd6c)" d="M 341.726562 318.503906 L 341.726562 447.929688 L 436.558594 447.929688 L 436.558594 318.503906 Z M 341.726562 318.503906 " fill-rule="nonzero"/></g></g><path fill="#fbc508" d="M 354.320312 495.902344 L 341.097656 503.550781 L 345.085938 488.972656 L 353.101562 493.59375 L 354.695312 494.519531 L 354.320312 495.902344 " fill-opacity="1" fill-rule="evenodd"/><path fill="#de7c18" d="M 314.605469 598.867188 L 340.804688 504.179688 L 340.96875 503.589844 L 341.097656 503.550781 L 354.320312 495.902344 L 327.199219 592.902344 L 314.183594 600.378906 L 314.605469 598.867188 " fill-opacity="1" fill-rule="evenodd"/><path fill="#f79ad2" d="M 416.113281 337.074219 L 416.113281 337.160156 L 417.960938 345.808594 L 343.40625 613.398438 L 338.867188 613.398438 L 415.949219 336.988281 L 416.027344 336.988281 C 416.085938 336.988281 416.113281 337.015625 416.113281 337.074219 Z M 464.894531 392.269531 L 462.375 385.296875 L 497.726562 259.101562 L 497.554688 259.101562 L 521.398438 173.914062 L 524.839844 177.1875 L 502.007812 259.101562 L 502.085938 259.101562 Z M 563.96875 112.75 L 506.875 159.628906 L 503.011719 156.523438 L 502.925781 156.441406 L 560.019531 109.640625 L 563.96875 112.75 " fill-opacity="1" fill-rule="evenodd"/><path fill="#b2164d" d="M 409.566406 542.742188 L 409.566406 532.996094 L 439.203125 550.386719 L 439.285156 583.910156 L 439.203125 583.910156 L 409.566406 566.4375 Z M 473.625 451.5 L 458.933594 442.511719 L 436.433594 419.324219 L 433.660156 416.46875 L 435.089844 411.34375 Z M 462.375 385.296875 L 464.894531 392.269531 L 417.960938 345.808594 L 416.113281 337.160156 L 416.113281 337.074219 L 436.433594 358.242188 L 443.484375 365.554688 L 452.96875 375.464844 Z M 506.875 159.628906 L 520.644531 173.15625 L 510.902344 167.277344 L 491.257812 149.382812 L 502.925781 156.441406 L 503.011719 156.523438 Z M 543.398438 201.300781 L 544.574219 196.929688 L 563.882812 216.003906 L 551.039062 208.273438 L 543.398438 201.300781 " fill-opacity="1" fill-rule="evenodd"/><path fill="#e7137c" d="M 468.84375 537.617188 L 468.84375 566.4375 L 439.285156 583.910156 L 439.203125 550.386719 L 468.84375 532.996094 Z M 520.644531 173.15625 L 506.875 159.628906 L 563.96875 112.75 L 563.96875 216.089844 L 563.882812 216.003906 L 544.574219 196.929688 L 543.398438 201.300781 L 507.800781 328.96875 L 507.714844 329.257812 L 501.378906 352.027344 L 473.625 451.5 L 435.089844 411.34375 L 433.660156 416.46875 L 427.570312 438.265625 L 396.34375 550.386719 L 394.28125 557.777344 L 388.03125 580.214844 L 385.636719 588.785156 L 343.40625 613.398438 L 417.960938 345.808594 L 464.894531 392.269531 L 502.085938 259.101562 L 502.007812 259.101562 L 524.839844 177.1875 L 521.398438 173.914062 L 520.8125 173.242188 L 520.644531 173.15625 " fill-opacity="1" fill-rule="evenodd"/><path fill="#f35bb5" d="M 338.867188 613.398438 L 323.925781 604.578125 L 327.199219 592.902344 L 354.320312 495.902344 L 354.695312 494.519531 L 367.710938 447.929688 L 397.265625 342.277344 L 401.253906 328.082031 L 411.285156 334.171875 L 415.949219 336.988281 L 338.867188 613.398438 " fill-opacity="1" fill-rule="evenodd"/></svg>