<svg xmlns="http://www.w3.org/2000/svg" xmlns:xlink="http://www.w3.org/1999/xlink" width="1080" zoomAndPan="magnify" viewBox="0 0 810 809.999993" height="1080" preserveAspectRatio="xMidYMid meet" version="1.0"><defs><filter x="0%" y="0%" width="100%" height="100%" id="eca21c5428"><feColorMatrix values="0 0 0 0 1 0 0 0 0 1 0 0 0 0 1 0 0 0 1 0" color-interpolation-filters="sRGB"/></filter><mask id="dc32311fc3"><g filter="url(#eca21c5428)"><rect x="-81" width="972" fill="#000000" y="-80.999999" height="971.999992" fill-opacity="0.6"/></g></mask><clipPath id="a2863f1945"><rect x="0" width="345" y="0" height="276"/></clipPath><clipPath id="13672fae44"><path d="M 502 83.0625 L 536 83.0625 L 536 129 L 502 129 Z M 502 83.0625 " clip-rule="nonzero"/></clipPath></defs><path fill="#36de9d" d="M 190.390625 132.390625 L 190.773438 132.785156 L 201.003906 133.792969 L 201.082031 133.871094 L 215.773438 148.519531 L 216.625 159.484375 L 186.476562 190.421875 C 185.957031 189.890625 163.945312 167.464844 165.351562 168.894531 L 160.222656 163.679688 Z M 190.390625 132.390625 " fill-opacity="1" fill-rule="nonzero"/><path fill="#00b367" d="M 183.484375 181.597656 L 215.773438 148.519531 L 216.625 159.484375 L 186.476562 190.421875 L 182.722656 186.601562 C 182.804688 184.578125 183.484375 181.597656 183.484375 181.597656 Z M 183.484375 181.597656 " fill-opacity="1" fill-rule="nonzero"/><path fill="#00b367" d="M 190.773438 132.582031 L 190.773438 132.785156 L 201.003906 133.792969 L 201.082031 133.871094 L 170.851562 164.730469 L 165.351562 168.894531 L 160.605469 163.871094 Z M 190.773438 132.582031 " fill-opacity="1" fill-rule="nonzero"/><path fill="#1d1e5f" d="M 186.476562 190.421875 L 185.621094 179.453125 L 170.851562 164.738281 L 160.222656 163.679688 L 161.042969 174.414062 L 175.925781 189.753906 Z M 186.476562 190.421875 " fill-opacity="1" fill-rule="nonzero"/><path fill="#cfacff" d="M 342.246094 354.910156 L 150.332031 377.855469 C 145.546875 378.425781 142.148438 382.742188 142.71875 387.507812 L 169.5625 611.488281 C 170.136719 616.257812 174.457031 619.660156 179.242188 619.089844 L 371.15625 596.144531 C 375.929688 595.574219 379.339844 591.246094 378.765625 586.476562 L 351.921875 362.5 C 351.351562 357.730469 347.019531 354.339844 342.246094 354.910156 Z M 367.042969 577.445312 C 367.601562 582.105469 364.28125 586.339844 359.613281 586.898438 L 188.277344 607.382812 C 183.609375 607.941406 179.378906 604.609375 178.820312 599.945312 L 154.441406 396.542969 C 153.882812 391.882812 157.207031 387.660156 161.875 387.101562 L 333.210938 366.617188 C 337.878906 366.058594 342.109375 369.378906 342.667969 374.039062 Z M 367.042969 577.445312 " fill-opacity="1" fill-rule="nonzero"/><path fill="#000000" d="M 387.945312 582.414062 L 390.015625 599.675781 C 390.183594 601.082031 389.175781 602.359375 387.769531 602.527344 L 370.484375 604.59375 C 369.078125 604.761719 367.800781 603.757812 367.632812 602.351562 L 365.5625 585.089844 C 365.394531 583.683594 366.398438 582.40625 367.808594 582.238281 L 385.089844 580.171875 C 386.5 580.003906 387.777344 581.007812 387.945312 582.414062 Z M 387.945312 582.414062 " fill-opacity="1" fill-rule="nonzero"/><path fill="#000000" d="M 184.53125 606.730469 L 186.597656 623.992188 C 186.765625 625.398438 185.761719 626.675781 184.355469 626.84375 L 167.070312 628.910156 C 165.664062 629.078125 164.382812 628.078125 164.214844 626.667969 L 162.148438 609.40625 C 161.980469 608 162.984375 606.722656 164.390625 606.554688 L 181.675781 604.488281 C 183.082031 604.320312 184.363281 605.324219 184.53125 606.730469 Z M 184.53125 606.730469 " fill-opacity="1" fill-rule="nonzero"/><path fill="#1d1e5f" d="M 484.3125 526.777344 L 471.09375 542.621094 C 471.09375 542.621094 471.09375 542.675781 471.042969 542.675781 C 469.117188 544.816406 466.441406 546.316406 463.335938 546.691406 L 238.089844 573.621094 C 231.347656 574.425781 225.191406 569.605469 224.390625 562.859375 L 209.136719 435.492188 C 208.710938 431.851562 209.941406 428.371094 212.242188 425.800781 L 223.425781 413.164062 L 223.375 412.949219 C 223.375 412.949219 230.117188 418.359375 230.492188 419 C 230.597656 419.160156 230.597656 419.75 230.597656 420.554688 L 445.140625 394.910156 C 451.882812 394.105469 458.039062 398.925781 458.839844 405.667969 L 471.417969 510.660156 C 471.578125 510.660156 471.792969 510.714844 471.953125 510.714844 C 475.109375 511.410156 484.3125 526.777344 484.3125 526.777344 Z M 484.3125 526.777344 " fill-opacity="1" fill-rule="nonzero"/><path fill="#f7b40d" d="M 617.839844 491.191406 L 264.082031 529.582031 C 256.660156 530.394531 250.136719 526.25 249.507812 520.324219 L 220.546875 246.488281 C 220.203125 243.09375 221.839844 239.867188 224.710938 237.558594 L 240.476562 221.03125 C 240.476562 221.03125 245.117188 227.484375 248.605469 232.589844 L 586.628906 195.90625 C 594.050781 195.097656 600.574219 199.238281 601.203125 205.167969 L 630.148438 479.003906 C 630.777344 484.933594 625.265625 490.378906 617.839844 491.191406 Z M 617.839844 491.191406 " fill-opacity="1" fill-rule="nonzero"/><path fill="#ffda66" d="M 281.199219 511.777344 L 634.96875 473.378906 C 642.390625 472.574219 647.898438 467.117188 647.273438 461.195312 L 618.324219 187.355469 C 617.699219 181.433594 611.171875 177.285156 603.75 178.089844 L 249.980469 216.488281 C 242.558594 217.296875 237.050781 222.75 237.675781 228.671875 L 266.625 502.511719 C 267.25 508.433594 273.777344 512.582031 281.199219 511.777344 Z M 281.199219 511.777344 " fill-opacity="1" fill-rule="nonzero"/><g mask="url(#dc32311fc3)"><g transform="matrix(1, 0, 0, 1, 278, 240)"><g clip-path="url(#a2863f1945)"><path fill="#ffffff" d="M 342.160156 237.328125 C 341.929688 235.070312 319.023438 11.128906 318.339844 4.652344 L 319.652344 4.519531 C 320.339844 10.988281 343.246094 234.933594 343.472656 237.195312 Z M 342.160156 237.328125 " fill-opacity="1" fill-rule="nonzero"/><path fill="#ffffff" d="M 78.296875 265.972656 C 78.0625 263.710938 55.15625 39.773438 54.472656 33.296875 L 55.789062 33.160156 C 56.476562 39.632812 79.382812 263.578125 79.609375 265.839844 Z M 78.296875 265.972656 " fill-opacity="1" fill-rule="nonzero"/><path fill="#ffffff" d="M 289.390625 243.054688 C 289.15625 240.796875 266.25 16.863281 265.566406 10.378906 L 266.882812 10.246094 C 267.570312 16.722656 290.476562 240.660156 290.703125 242.921875 Z M 289.390625 243.054688 " fill-opacity="1" fill-rule="nonzero"/><path fill="#ffffff" d="M 235.441406 248.914062 C 235.210938 246.652344 212.304688 22.710938 211.621094 16.234375 L 212.933594 16.101562 C 213.621094 22.574219 236.527344 246.515625 236.757812 248.777344 Z M 235.441406 248.914062 " fill-opacity="1" fill-rule="nonzero"/><path fill="#ffffff" d="M 182.664062 254.644531 C 182.433594 252.382812 159.527344 28.445312 158.851562 21.96875 L 160.164062 21.832031 C 160.84375 28.304688 183.75 252.25 183.980469 254.507812 Z M 182.664062 254.644531 " fill-opacity="1" fill-rule="nonzero"/><path fill="#ffffff" d="M 128.71875 260.5 C 128.488281 258.238281 105.582031 34.300781 104.902344 27.824219 L 106.21875 27.6875 C 106.898438 34.160156 129.804688 258.105469 130.035156 260.367188 Z M 128.71875 260.5 " fill-opacity="1" fill-rule="nonzero"/><path fill="#ffffff" d="M 27.265625 271.507812 C 27.03125 269.246094 4.125 45.308594 3.445312 38.832031 L 4.757812 38.695312 C 5.445312 45.167969 28.351562 269.113281 28.578125 271.375 Z M 27.265625 271.507812 " fill-opacity="1" fill-rule="nonzero"/></g></g></g><path fill="#ffffff" d="M 284.851562 461.753906 L 284.707031 460.441406 C 292.027344 459.644531 628.464844 423.226562 628.464844 423.226562 L 628.609375 424.539062 C 628.609375 424.539062 292.171875 460.957031 284.851562 461.753906 Z M 284.851562 461.753906 " fill-opacity="1" fill-rule="nonzero"/><path fill="#ffffff" d="M 243.003906 284.980469 L 242.859375 283.667969 C 251.070312 282.777344 628.480469 241.921875 628.480469 241.921875 L 628.625 243.234375 C 628.625 243.234375 251.214844 284.09375 243.003906 284.980469 Z M 243.003906 284.980469 " fill-opacity="1" fill-rule="nonzero"/><path fill="#ffffff" d="M 272.871094 349.847656 L 272.726562 348.53125 C 280.054688 347.734375 616.753906 311.285156 616.753906 311.285156 L 616.898438 312.601562 C 616.898438 312.601562 280.199219 349.050781 272.871094 349.847656 Z M 272.871094 349.847656 " fill-opacity="1" fill-rule="nonzero"/><path fill="#ffffff" d="M 276.84375 387.40625 L 276.699219 386.09375 C 284.023438 385.296875 620.726562 348.847656 620.726562 348.847656 L 620.871094 350.160156 C 620.871094 350.160156 284.167969 386.609375 276.84375 387.40625 Z M 276.84375 387.40625 " fill-opacity="1" fill-rule="nonzero"/><path fill="#ffffff" d="M 281.0625 425.890625 L 280.917969 424.574219 C 288.234375 423.777344 624.671875 387.359375 624.671875 387.359375 L 624.816406 388.675781 C 624.816406 388.675781 288.378906 425.09375 281.0625 425.890625 Z M 281.0625 425.890625 " fill-opacity="1" fill-rule="nonzero"/><path fill="#ffffff" d="M 288.6875 498.042969 L 288.542969 496.730469 C 295.867188 495.9375 632.300781 459.519531 632.300781 459.519531 L 632.445312 460.832031 C 632.445312 460.832031 296.011719 497.25 288.6875 498.042969 Z M 288.6875 498.042969 " fill-opacity="1" fill-rule="nonzero"/><path fill="#000000" d="M 266.796875 503.195312 C 265.636719 503.195312 267.476562 512.738281 239.304688 248.753906 C 239.261719 248.394531 239.527344 248.066406 239.894531 248.03125 C 240.21875 247.914062 240.574219 248.257812 240.617188 248.621094 C 268.179688 512.238281 268.160156 503.0625 266.863281 503.191406 C 266.84375 503.195312 266.816406 503.195312 266.796875 503.195312 Z M 266.796875 503.195312 " fill-opacity="1" fill-rule="nonzero"/><path fill="#000000" d="M 281.347656 451.253906 C 281.011719 451.253906 280.726562 451.003906 280.691406 450.664062 L 266.773438 325.457031 C 266.734375 325.09375 266.996094 324.765625 267.359375 324.726562 C 267.757812 324.691406 268.050781 324.945312 268.089844 325.3125 L 282.003906 450.519531 C 282.042969 450.878906 281.78125 451.207031 281.417969 451.246094 C 281.394531 451.253906 281.371094 451.253906 281.347656 451.253906 Z M 281.347656 451.253906 " fill-opacity="1" fill-rule="nonzero"/><path fill="#fc5197" d="M 324.992188 235.488281 C 321.550781 242.519531 324.464844 251.007812 331.503906 254.445312 C 338.542969 257.882812 347.042969 254.972656 350.484375 247.941406 C 353.925781 240.910156 351.011719 232.421875 343.96875 228.984375 C 336.929688 225.546875 328.433594 228.460938 324.992188 235.488281 Z M 324.992188 235.488281 " fill-opacity="1" fill-rule="nonzero"/><path fill="#7d2bfc" d="M 275.191406 238.847656 C 271.75 245.878906 274.664062 254.367188 281.707031 257.804688 C 288.746094 261.242188 297.242188 258.328125 300.683594 251.300781 C 304.128906 244.269531 301.210938 235.78125 294.171875 232.34375 C 287.132812 228.90625 278.636719 231.816406 275.191406 238.847656 Z M 275.191406 238.847656 " fill-opacity="1" fill-rule="nonzero"/><path fill="#00b367" d="M 373.386719 231.3125 C 369.945312 238.34375 372.859375 246.828125 379.898438 250.265625 C 386.9375 253.707031 395.4375 250.792969 398.878906 243.761719 C 402.320312 236.730469 399.40625 228.246094 392.367188 224.808594 C 385.324219 221.367188 376.828125 224.28125 373.386719 231.3125 Z M 373.386719 231.3125 " fill-opacity="1" fill-rule="nonzero"/><path fill="#000000" d="M 156.667969 374.253906 L 158.738281 391.515625 C 158.90625 392.921875 157.902344 394.199219 156.492188 394.367188 L 139.210938 396.433594 C 137.800781 396.601562 136.523438 395.597656 136.355469 394.191406 L 134.285156 376.929688 C 134.117188 375.523438 135.121094 374.246094 136.53125 374.078125 L 153.8125 372.011719 C 155.222656 371.84375 156.5 372.847656 156.667969 374.253906 Z M 156.667969 374.253906 " fill-opacity="1" fill-rule="nonzero"/><path fill="#36de9d" d="M 471.335938 391.21875 L 486.601562 518.589844 C 487.410156 525.324219 482.585938 531.441406 475.832031 532.25 L 250.597656 559.175781 C 243.84375 559.984375 237.710938 555.175781 236.902344 548.441406 L 221.640625 421.070312 C 220.832031 414.335938 225.652344 408.21875 232.410156 407.414062 L 457.640625 380.484375 C 464.398438 379.679688 470.527344 384.484375 471.335938 391.21875 Z M 471.335938 391.21875 " fill-opacity="1" fill-rule="nonzero"/><path fill="#ffffff" d="M 443.652344 430.34375 L 443.902344 430.242188 C 444.71875 437.042969 439.910156 443.210938 433.164062 444.019531 L 398.511719 448.160156 C 391.769531 448.96875 385.636719 444.105469 384.824219 437.304688 C 384.007812 430.503906 388.816406 424.335938 395.5625 423.527344 L 430.214844 419.386719 C 436.960938 418.578125 442.839844 423.539062 443.652344 430.34375 Z M 443.652344 430.34375 " fill-opacity="1" fill-rule="nonzero"/><path fill="#1d1e5f" d="M 411.183594 434.363281 C 412.246094 443.226562 405.914062 451.273438 397.039062 452.332031 C 388.152344 453.394531 380.097656 447.070312 379.035156 438.207031 C 377.972656 429.339844 384.304688 421.285156 393.191406 420.222656 C 402.066406 419.160156 410.121094 425.496094 411.183594 434.363281 Z M 411.183594 434.363281 " fill-opacity="1" fill-rule="nonzero"/><path fill="#ffe99c" d="M 473.878906 493.222656 C 474.84375 501.246094 469.105469 508.535156 461.082031 509.496094 C 453.046875 510.457031 445.75 504.726562 444.789062 496.699219 C 443.824219 488.675781 449.5625 481.398438 457.597656 480.4375 C 465.621094 479.476562 472.917969 485.195312 473.878906 493.222656 Z M 473.878906 493.222656 " fill-opacity="1" fill-rule="nonzero"/><path fill="#7d2bfc" d="M 436.75 497.660156 C 437.710938 505.6875 431.976562 512.972656 423.953125 513.933594 C 415.917969 514.894531 408.621094 509.164062 407.65625 501.140625 C 406.695312 493.113281 412.433594 485.835938 420.46875 484.875 C 428.492188 483.917969 435.789062 489.636719 436.75 497.660156 Z M 436.75 497.660156 " fill-opacity="1" fill-rule="nonzero"/><path fill="#fc5197" d="M 399.621094 502.101562 C 400.582031 510.125 394.84375 517.414062 386.820312 518.371094 C 378.785156 519.332031 371.488281 513.605469 370.527344 505.578125 C 369.566406 497.550781 375.304688 490.277344 383.339844 489.316406 C 391.363281 488.355469 398.660156 494.074219 399.621094 502.101562 Z M 399.621094 502.101562 " fill-opacity="1" fill-rule="nonzero"/><path fill="#dbf2ff" d="M 687.714844 420.179688 C 678.667969 447.84375 661.328125 496.597656 648.886719 532.53125 C 643.496094 548.101562 631.246094 560.488281 615.546875 565.535156 C 600.792969 570.277344 589.585938 566.527344 581.527344 555.253906 C 573.832031 544.484375 572.011719 530.585938 576.144531 518.015625 L 615.308594 398.792969 C 616.917969 393.90625 622.101562 391.15625 627.054688 392.570312 L 681.226562 408 C 686.457031 409.488281 689.40625 415.015625 687.714844 420.179688 Z M 687.714844 420.179688 " fill-opacity="1" fill-rule="nonzero"/><path fill="#fc5197" d="M 595.179688 506.484375 L 637.890625 517.90625 C 641.109375 518.765625 644.441406 516.96875 645.484375 513.804688 C 645.792969 512.867188 674.40625 425.953125 674.210938 426.546875 C 675.328125 423.152344 673.390625 419.511719 669.941406 418.542969 L 628.234375 406.84375 C 625.011719 405.9375 621.652344 407.71875 620.582031 410.882812 L 613.453125 431.363281 L 605.351562 455.40625 L 596.359375 482.09375 L 590.855469 498.421875 C 589.695312 501.847656 591.679688 505.546875 595.179688 506.484375 Z M 595.179688 506.484375 " fill-opacity="1" fill-rule="nonzero"/><path fill="#ff81af" d="M 595.179688 506.484375 L 637.890625 517.90625 C 641.109375 518.765625 644.441406 516.96875 645.484375 513.804688 C 645.121094 514.898438 650.367188 498.964844 668.28125 444.589844 L 613.453125 431.363281 L 605.351562 455.40625 L 596.359375 482.09375 L 590.855469 498.421875 C 589.695312 501.847656 591.679688 505.546875 595.179688 506.484375 Z M 595.179688 506.484375 " fill-opacity="1" fill-rule="nonzero"/><path fill="#f993bc" d="M 595.179688 506.484375 L 637.890625 517.90625 C 641.109375 518.765625 644.441406 516.96875 645.484375 513.804688 C 645.660156 513.269531 660.714844 467.570312 659.773438 470.425781 L 605.351562 455.40625 L 596.359375 482.09375 L 590.855469 498.421875 C 589.695312 501.847656 591.679688 505.546875 595.179688 506.484375 Z M 595.179688 506.484375 " fill-opacity="1" fill-rule="nonzero"/><path fill="#ffb8d2" d="M 595.179688 506.484375 L 637.890625 517.90625 C 641.109375 518.765625 644.441406 516.96875 645.484375 513.804688 L 651.042969 496.910156 L 596.359375 482.09375 L 590.855469 498.421875 C 589.695312 501.847656 591.679688 505.546875 595.179688 506.484375 Z M 595.179688 506.484375 " fill-opacity="1" fill-rule="nonzero"/><path fill="#dbf2ff" d="M 742.792969 542.492188 C 714.785156 550.519531 664.644531 563.519531 627.878906 573.378906 C 611.949219 577.652344 594.8125 574.46875 581.824219 564.3125 C 569.617188 554.773438 566.445312 543.402344 571.269531 530.417969 C 575.882812 518.015625 586.382812 508.714844 599.125 505.085938 L 719.921875 470.621094 C 724.875 469.210938 730.058594 471.957031 731.667969 476.84375 L 749.25 530.292969 C 750.949219 535.453125 748.019531 540.992188 742.792969 542.492188 Z M 742.792969 542.492188 " fill-opacity="1" fill-rule="nonzero"/><path fill="#7d2bfc" d="M 619.355469 514.359375 L 633.839844 556.085938 C 634.929688 559.230469 638.289062 560.976562 641.492188 560.066406 C 691.25 545.90625 616.074219 567.300781 729.9375 534.894531 C 733.382812 533.914062 735.3125 530.269531 734.183594 526.875 L 720.496094 485.824219 C 719.4375 482.652344 716.078125 480.871094 712.855469 481.761719 L 691.882812 487.347656 C 691.347656 487.496094 622.996094 506.433594 623.617188 506.261719 C 620.125 507.222656 618.171875 510.941406 619.355469 514.359375 Z M 619.355469 514.359375 " fill-opacity="1" fill-rule="nonzero"/><path fill="#9e59ff" d="M 619.355469 514.359375 L 633.839844 556.085938 C 634.929688 559.230469 638.289062 560.976562 641.492188 560.066406 C 640.386719 560.378906 656.535156 555.785156 711.660156 540.105469 L 691.882812 487.347656 C 691.347656 487.496094 622.996094 506.433594 623.617188 506.261719 C 620.125 507.222656 618.171875 510.941406 619.355469 514.359375 Z M 619.355469 514.359375 " fill-opacity="1" fill-rule="nonzero"/><path fill="#9797ff" d="M 619.355469 514.359375 L 633.839844 556.085938 C 634.929688 559.230469 638.289062 560.976562 641.492188 560.066406 C 642.023438 559.914062 688.402344 546.722656 685.46875 547.558594 L 667.40625 494.132812 C 666.875 494.28125 621.046875 506.972656 623.617188 506.261719 C 620.125 507.222656 618.171875 510.941406 619.355469 514.359375 Z M 619.355469 514.359375 " fill-opacity="1" fill-rule="nonzero"/><path fill="#cfacff" d="M 619.355469 514.359375 L 633.839844 556.085938 C 634.929688 559.230469 638.289062 560.976562 641.492188 560.066406 L 658.617188 555.191406 L 640.238281 501.660156 L 623.617188 506.261719 C 620.125 507.222656 618.171875 510.941406 619.355469 514.359375 Z M 619.355469 514.359375 " fill-opacity="1" fill-rule="nonzero"/><path fill="#dbf2ff" d="M 723.628906 622.214844 C 695.496094 614.640625 645.84375 599.898438 609.261719 589.371094 C 593.414062 584.808594 580.386719 573.242188 574.519531 557.84375 C 569.003906 543.375 572.167969 532.007812 583.015625 523.378906 C 593.378906 515.136719 607.179688 512.59375 619.96875 516.058594 L 741.222656 548.878906 C 746.195312 550.226562 749.210938 555.253906 748.0625 560.265625 L 735.46875 615.105469 C 734.253906 620.398438 728.882812 623.628906 723.628906 622.214844 Z M 723.628906 622.214844 " fill-opacity="1" fill-rule="nonzero"/><path fill="#f7b40d" d="M 632.492188 534.441406 L 623.3125 577.640625 C 622.617188 580.894531 624.589844 584.121094 627.808594 584.996094 C 628.339844 585.140625 674.871094 597.777344 671.929688 596.976562 C 672.460938 597.121094 719.542969 609.886719 716.554688 609.078125 C 720.011719 610.015625 723.546875 607.890625 724.335938 604.402344 L 733.851562 562.191406 C 734.585938 558.929688 732.628906 555.671875 729.410156 554.773438 L 708.5625 548.730469 C 708.03125 548.582031 639.710938 529.53125 640.328125 529.703125 C 636.84375 528.726562 633.246094 530.898438 632.492188 534.441406 Z M 632.492188 534.441406 " fill-opacity="1" fill-rule="nonzero"/><path fill="#ffda66" d="M 632.492188 534.441406 L 623.3125 577.640625 C 622.617188 580.894531 624.589844 584.121094 627.808594 584.996094 C 628.339844 585.140625 674.871094 597.777344 671.929688 596.976562 L 698.207031 604.109375 L 708.5625 548.730469 C 708.03125 548.582031 639.710938 529.53125 640.328125 529.703125 C 636.84375 528.726562 633.246094 530.898438 632.492188 534.441406 Z M 632.492188 534.441406 " fill-opacity="1" fill-rule="nonzero"/><path fill="#ffe99c" d="M 632.492188 534.441406 L 623.3125 577.640625 C 622.617188 580.894531 624.589844 584.121094 627.808594 584.996094 C 628.339844 585.140625 674.871094 597.777344 671.929688 596.976562 L 684.097656 541.914062 C 683.566406 541.765625 637.761719 528.988281 640.328125 529.703125 C 636.84375 528.726562 633.246094 530.898438 632.492188 534.441406 Z M 632.492188 534.441406 " fill-opacity="1" fill-rule="nonzero"/><path fill="#fff1c1" d="M 632.492188 534.441406 L 623.3125 577.640625 C 622.617188 580.894531 624.589844 584.121094 627.808594 584.996094 L 644.988281 589.660156 L 656.941406 534.335938 L 640.328125 529.703125 C 636.84375 528.726562 633.246094 530.898438 632.492188 534.441406 Z M 632.492188 534.441406 " fill-opacity="1" fill-rule="nonzero"/><path fill="#1d1e5f" d="M 596.648438 530.882812 C 589.464844 531.671875 584.277344 538.128906 585.066406 545.300781 C 585.855469 552.484375 592.320312 557.65625 599.503906 556.871094 C 606.691406 556.082031 611.878906 549.632812 611.089844 542.449219 C 610.300781 535.277344 603.835938 530.097656 596.648438 530.882812 Z M 596.648438 530.882812 " fill-opacity="1" fill-rule="nonzero"/><path fill="#000000" d="M 736.578125 547.894531 C 736.523438 547.894531 736.464844 547.890625 736.410156 547.875 C 603.933594 511.753906 609.925781 514.367188 610.257812 513.101562 C 610.613281 511.847656 604.371094 511.152344 736.75 546.589844 C 737.503906 546.796875 737.34375 547.894531 736.578125 547.894531 Z M 736.578125 547.894531 " fill-opacity="1" fill-rule="nonzero"/><path fill="#000000" d="M 594.425781 507.609375 C 594.140625 507.609375 593.875 507.421875 593.789062 507.132812 C 593.6875 506.78125 593.890625 506.414062 594.242188 506.308594 C 707.6875 473.503906 702.230469 474.097656 702.582031 475.359375 C 702.953125 476.617188 708.230469 474.074219 594.613281 507.582031 C 594.550781 507.597656 594.488281 507.609375 594.425781 507.609375 Z M 594.425781 507.609375 " fill-opacity="1" fill-rule="nonzero"/><path fill="#000000" d="M 647.601562 578.324219 C 647.5625 578.324219 647.519531 578.316406 647.472656 578.3125 C 647.117188 578.238281 646.882812 577.894531 646.949219 577.53125 L 653.828125 542.742188 C 653.996094 541.902344 655.292969 542.121094 655.128906 543 L 648.253906 577.789062 C 648.191406 578.105469 647.914062 578.324219 647.601562 578.324219 Z M 647.601562 578.324219 " fill-opacity="1" fill-rule="nonzero"/><path fill="#000000" d="M 674.71875 586.148438 C 674.671875 586.148438 674.625 586.144531 674.574219 586.132812 C 674.214844 586.054688 673.992188 585.703125 674.070312 585.34375 L 681.386719 552.074219 C 681.464844 551.722656 681.785156 551.503906 682.179688 551.574219 C 682.535156 551.652344 682.757812 552.003906 682.679688 552.363281 C 674.953125 586.457031 675.742188 586.148438 674.71875 586.148438 Z M 674.71875 586.148438 " fill-opacity="1" fill-rule="nonzero"/><path fill="#000000" d="M 698.578125 603.070312 L 708.183594 551.71875 C 708.339844 550.886719 709.648438 551.082031 709.484375 551.964844 L 699.882812 603.320312 C 699.710938 604.191406 698.421875 603.925781 698.578125 603.070312 Z M 698.578125 603.070312 " fill-opacity="1" fill-rule="nonzero"/><path fill="#000000" d="M 697.53125 584.929688 C 697.503906 584.929688 697.480469 584.929688 697.453125 584.921875 C 697.089844 584.882812 696.832031 584.550781 696.875 584.1875 C 697.421875 579.472656 698.199219 574.726562 699.179688 570.09375 C 699.257812 569.734375 699.625 569.507812 699.964844 569.585938 C 700.324219 569.65625 700.550781 570.007812 700.472656 570.371094 C 699.5 574.964844 698.730469 579.667969 698.1875 584.34375 C 698.152344 584.679688 697.859375 584.929688 697.53125 584.929688 Z M 697.53125 584.929688 " fill-opacity="1" fill-rule="nonzero"/><path fill="#000000" d="M 723.992188 599.40625 L 732.9375 563.945312 C 733.03125 563.59375 733.382812 563.351562 733.742188 563.464844 C 734.097656 563.554688 734.308594 563.914062 734.222656 564.265625 L 725.277344 599.726562 C 725.054688 600.585938 723.78125 600.253906 723.992188 599.40625 Z M 723.992188 599.40625 " fill-opacity="1" fill-rule="nonzero"/><path fill="#000000" d="M 723.335938 587.746094 C 723.300781 587.746094 723.265625 587.742188 723.222656 587.738281 C 722.867188 587.675781 722.625 587.332031 722.6875 586.972656 L 724.152344 578.4375 C 724.214844 578.078125 724.515625 577.847656 724.917969 577.898438 C 725.277344 577.960938 725.519531 578.300781 725.457031 578.664062 L 723.988281 587.199219 C 723.933594 587.519531 723.652344 587.746094 723.335938 587.746094 Z M 723.335938 587.746094 " fill-opacity="1" fill-rule="nonzero"/><path fill="#000000" d="M 608.507812 589.703125 C 608.15625 589.597656 607.953125 589.230469 608.054688 588.878906 C 608.15625 588.527344 608.53125 588.347656 608.878906 588.429688 C 720.074219 621.171875 714.960938 618.695312 714.59375 619.9375 C 714.222656 621.238281 719.488281 621.703125 608.507812 589.703125 Z M 608.507812 589.703125 " fill-opacity="1" fill-rule="nonzero"/><path fill="#000000" d="M 606.75 563.210938 C 613.304688 559.765625 617.859375 552.773438 618.351562 545.386719 C 618.378906 545.039062 618.667969 544.769531 619.011719 544.769531 C 619.027344 544.769531 619.042969 544.769531 619.058594 544.769531 C 619.421875 544.796875 619.695312 545.113281 619.675781 545.480469 C 619.152344 553.3125 614.316406 560.734375 607.359375 564.382812 C 606.582031 564.789062 605.972656 563.605469 606.75 563.210938 Z M 606.75 563.210938 " fill-opacity="1" fill-rule="nonzero"/><path fill="#000000" d="M 706.019531 527.074219 L 691.640625 487.964844 C 691.511719 487.625 691.6875 487.242188 692.035156 487.117188 C 692.359375 487 692.753906 487.164062 692.882812 487.511719 L 707.261719 526.617188 C 707.570312 527.433594 706.320312 527.898438 706.019531 527.074219 Z M 706.019531 527.074219 " fill-opacity="1" fill-rule="nonzero"/><path fill="#000000" d="M 678.34375 528.335938 L 667.007812 494.820312 L 643.050781 501.507812 C 642.210938 501.742188 641.855469 500.46875 642.699219 500.234375 L 667.257812 493.375 C 667.59375 493.285156 667.945312 493.46875 668.058594 493.800781 L 679.59375 527.910156 C 679.878906 528.742188 678.625 529.167969 678.34375 528.335938 Z M 678.34375 528.335938 " fill-opacity="1" fill-rule="nonzero"/><path fill="#000000" d="M 703.695312 491.5 C 703.414062 491.5 703.160156 491.324219 703.066406 491.046875 C 702.949219 490.703125 703.136719 490.324219 703.480469 490.210938 L 716.046875 486.003906 C 716.898438 485.726562 717.285156 486.988281 716.46875 487.257812 L 703.90625 491.460938 C 703.832031 491.488281 703.761719 491.5 703.695312 491.5 Z M 703.695312 491.5 " fill-opacity="1" fill-rule="nonzero"/><path fill="#000000" d="M 743.457031 513.371094 C 743.175781 513.371094 742.917969 513.195312 742.824219 512.914062 L 730.238281 474.839844 C 728.832031 471.578125 724.734375 470.515625 721.457031 470.960938 C 718.164062 471.410156 716.65625 473.160156 716.175781 472 C 716.035156 471.660156 716.195312 471.273438 716.53125 471.136719 C 718.039062 470.515625 719.589844 469.878906 721.28125 469.648438 C 724.992188 469.15625 729.773438 470.414062 731.480469 474.371094 L 744.085938 512.5 C 744.199219 512.847656 744.007812 513.21875 743.664062 513.339844 C 743.597656 513.359375 743.523438 513.371094 743.457031 513.371094 Z M 743.457031 513.371094 " fill-opacity="1" fill-rule="nonzero"/><path fill="#000000" d="M 572.695312 527.632812 C 572.605469 527.632812 572.519531 527.617188 572.4375 527.582031 C 572.097656 527.4375 571.945312 527.046875 572.085938 526.710938 C 576.136719 517.246094 584.660156 509.375 594.316406 506.175781 C 594.664062 506.078125 595.042969 506.253906 595.15625 506.597656 C 595.269531 506.945312 595.078125 507.316406 594.730469 507.4375 C 585.425781 510.519531 577.214844 518.101562 573.304688 527.230469 C 573.195312 527.480469 572.953125 527.632812 572.695312 527.632812 Z M 572.695312 527.632812 " fill-opacity="1" fill-rule="nonzero"/><path fill="#000000" d="M 673.859375 459.738281 L 686.859375 419.109375 C 688.285156 414.652344 685.683594 409.9375 681.15625 408.75 L 652.5 401.269531 C 652.140625 401.179688 651.929688 400.816406 652.023438 400.464844 C 652.117188 400.105469 652.488281 399.90625 652.828125 399.988281 L 681.484375 407.46875 C 686.761719 408.851562 689.777344 414.347656 688.121094 419.511719 L 675.121094 460.140625 C 674.859375 460.96875 673.597656 460.574219 673.859375 459.738281 Z M 673.859375 459.738281 " fill-opacity="1" fill-rule="nonzero"/><path fill="#000000" d="M 664.042969 444.289062 C 653.253906 441.753906 617.9375 433.445312 619.855469 433.898438 C 619.035156 433.695312 619.253906 432.457031 620.15625 432.605469 L 664.195312 442.980469 C 664.550781 443.070312 664.773438 443.425781 664.691406 443.777344 C 664.617188 444.082031 664.34375 444.289062 664.042969 444.289062 Z M 664.042969 444.289062 " fill-opacity="1" fill-rule="nonzero"/><path fill="#000000" d="M 647.933594 468.328125 C 632.324219 464.671875 614 460.378906 614.628906 460.527344 C 613.800781 460.324219 614.035156 459.085938 614.929688 459.234375 L 648.082031 467.019531 C 648.441406 467.109375 648.660156 467.460938 648.578125 467.816406 C 648.507812 468.121094 648.234375 468.328125 647.933594 468.328125 Z M 647.933594 468.328125 " fill-opacity="1" fill-rule="nonzero"/><path fill="#000000" d="M 619.230469 466.300781 C 618.410156 466.058594 618.726562 464.804688 619.601562 465.027344 L 636.832031 470.050781 C 637.183594 470.15625 637.386719 470.523438 637.28125 470.875 C 636.992188 471.882812 637.117188 471.503906 619.230469 466.300781 Z M 619.230469 466.300781 " fill-opacity="1" fill-rule="nonzero"/><path fill="#fff1c1" d="M 364.8125 518.851562 C 364.441406 520.671875 363.207031 522.226562 361.496094 523.027344 C 360.960938 523.242188 360.371094 523.402344 359.785156 523.511719 L 335.96875 526.347656 L 315.6875 528.808594 L 264.847656 534.859375 C 264.472656 534.914062 264.097656 534.914062 263.777344 534.859375 C 262.4375 534.804688 261.207031 534.269531 260.246094 533.414062 C 259.230469 532.503906 258.53125 531.21875 258.320312 529.773438 C 242.769531 399.761719 248.132812 444.601562 246.972656 434.902344 C 246.597656 431.742188 248.847656 428.796875 252.058594 428.425781 L 346.992188 417.074219 C 350.203125 416.699219 353.148438 419 353.523438 422.160156 C 366.867188 533.761719 364.8125 515.867188 364.8125 518.851562 Z M 364.8125 518.851562 " fill-opacity="1" fill-rule="nonzero"/><path fill="#9e59ff" d="M 364.867188 518.421875 C 364.867188 518.582031 364.8125 518.691406 364.8125 518.851562 C 364.441406 520.671875 363.207031 522.226562 361.496094 523.027344 C 360.960938 523.242188 360.371094 523.402344 359.785156 523.511719 L 335.96875 526.347656 L 315.6875 528.808594 C 311.996094 518.261719 307.765625 506.214844 307.445312 506.054688 C 306.914062 505.855469 315.191406 497.164062 315.6875 496.632812 L 330.027344 477.304688 L 364.707031 515.746094 C 364.800781 516.710938 364.988281 517.324219 364.867188 518.421875 Z M 364.867188 518.421875 " fill-opacity="1" fill-rule="nonzero"/><path fill="#cfacff" d="M 335.96875 526.347656 L 315.6875 528.808594 L 264.847656 534.859375 C 264.472656 534.914062 264.097656 534.914062 263.777344 534.859375 C 262.4375 534.804688 261.207031 534.269531 260.246094 533.414062 C 259.230469 532.503906 258.53125 531.21875 258.320312 529.773438 L 257.140625 520.03125 L 291.820312 464.617188 C 296.335938 470.929688 275.460938 441.746094 335.96875 526.347656 Z M 335.96875 526.347656 " fill-opacity="1" fill-rule="nonzero"/><path fill="#f7b40d" d="M 337.492188 448.046875 C 338.21875 454.113281 333.878906 459.621094 327.804688 460.347656 C 321.730469 461.074219 316.21875 456.742188 315.492188 450.679688 C 314.765625 444.613281 319.097656 439.097656 325.171875 438.371094 C 331.246094 437.644531 336.765625 441.980469 337.492188 448.046875 Z M 337.492188 448.046875 " fill-opacity="1" fill-rule="nonzero"/><path fill="#dbf2ff" d="M 175.429688 490.882812 C 180.734375 492.855469 230.066406 511.203125 235.835938 513.347656 C 237.617188 514.011719 239.441406 514.203125 241.089844 513.910156 L 269.828125 508.738281 L 284.457031 514.003906 L 285.816406 506.371094 L 271.210938 501.109375 C 244.003906 467.171875 253.28125 478.640625 251.269531 476.242188 C 248.121094 472.445312 249.703125 474.617188 189.253906 447.703125 Z M 175.429688 490.882812 " fill-opacity="1" fill-rule="nonzero"/><path fill="#9e59ff" d="M 223.269531 508.675781 C 234.367188 512.46875 236.972656 514.640625 241.089844 513.910156 L 269.828125 508.738281 L 284.457031 514.003906 C 287.761719 515.195312 289.117188 507.5625 285.816406 506.371094 L 271.210938 501.109375 C 244.460938 467.742188 253.457031 476.398438 237.925781 468.992188 C 239.992188 477 238.726562 484.890625 236.453125 491.980469 C 233.988281 499.699219 230.710938 505.5625 223.269531 508.675781 Z M 223.269531 508.675781 " fill-opacity="1" fill-rule="nonzero"/><path fill="#9797ff" d="M 216.835938 506.285156 C 217.386719 506.492188 228.265625 510.535156 227.585938 510.28125 C 238.9375 503.816406 248.199219 481.257812 243.65625 471.5 C 243.117188 471.261719 235.582031 467.964844 236.121094 468.203125 C 225.1875 471.492188 213.683594 494.148438 216.835938 506.285156 Z M 216.835938 506.285156 " fill-opacity="1" fill-rule="nonzero"/><path fill="#000000" d="M 216.433594 505.140625 C 213.960938 496.648438 218.394531 486.0625 223.347656 478.613281 C 225.839844 474.855469 229.101562 470.667969 234.40625 468.101562 C 235.1875 467.71875 235.777344 468.902344 234.984375 469.289062 C 229.964844 471.71875 226.84375 475.738281 224.453125 479.347656 C 219.613281 486.621094 215.386719 496.804688 217.707031 504.765625 C 217.808594 505.121094 217.605469 505.488281 217.253906 505.589844 C 216.859375 505.6875 216.527344 505.46875 216.433594 505.140625 Z M 216.433594 505.140625 " fill-opacity="1" fill-rule="nonzero"/><path fill="#000000" d="M 221.402344 503.796875 C 221.050781 503.796875 220.757812 503.515625 220.742188 503.164062 C 220.316406 493.359375 223.992188 484.273438 230.828125 478.226562 C 231.5 477.652344 232.359375 478.640625 231.707031 479.21875 C 225.171875 484.996094 221.65625 493.703125 222.0625 503.101562 C 222.078125 503.46875 221.796875 503.78125 221.433594 503.796875 C 221.421875 503.796875 221.414062 503.796875 221.402344 503.796875 Z M 221.402344 503.796875 " fill-opacity="1" fill-rule="nonzero"/><path fill="#000000" d="M 232.550781 467.210938 L 198.804688 452.550781 C 198.46875 452.40625 198.316406 452.019531 198.464844 451.683594 C 198.609375 451.351562 198.996094 451.179688 199.332031 451.339844 L 233.078125 466 C 233.898438 466.355469 233.320312 467.574219 232.550781 467.210938 Z M 232.550781 467.210938 " fill-opacity="1" fill-rule="nonzero"/><path fill="#000000" d="M 237.875 497.960938 C 242.957031 489.628906 246.140625 481.378906 243.078125 471.996094 C 242.804688 471.152344 244.070312 470.761719 244.339844 471.582031 C 247.527344 481.398438 244.296875 489.964844 239.003906 498.652344 C 238.546875 499.394531 237.417969 498.710938 237.875 497.960938 Z M 237.875 497.960938 " fill-opacity="1" fill-rule="nonzero"/><path fill="#000000" d="M 284.53125 514.796875 C 283.71875 514.492188 284.183594 513.25 285.007812 513.566406 C 286.675781 514.128906 287.996094 507.941406 286.171875 507.226562 C 285.566406 506.992188 285.625 506.089844 286.285156 505.960938 C 286.476562 505.90625 286.714844 505.957031 286.875 506.089844 C 289.925781 507.675781 287.945312 516.132812 284.53125 514.796875 Z M 284.53125 514.796875 " fill-opacity="1" fill-rule="nonzero"/><path fill="#ff81af" d="M 158.425781 493.726562 L 166.09375 497.136719 C 167.070312 497.980469 168.183594 498.542969 169.4375 498.8125 C 169.617188 498.851562 169.804688 498.84375 169.984375 498.871094 L 170.019531 498.886719 C 170.019531 498.886719 170.027344 498.878906 170.03125 498.875 C 178.316406 499.96875 189.21875 487.875 194.675781 471.335938 C 199.554688 456.570312 198.46875 443.167969 192.5625 438.804688 C 192.570312 438.546875 180.21875 432.878906 180.21875 432.878906 C 180.21875 432.878906 176.339844 437.929688 176.101562 439.511719 C 176 440.132812 176 442.011719 176.132812 444.097656 C 166.886719 454.050781 160.808594 471.421875 161.40625 484.246094 C 159.910156 488.332031 158.425781 493.726562 158.425781 493.726562 Z M 158.425781 493.726562 " fill-opacity="1" fill-rule="nonzero"/><path fill="#ffb8d2" d="M 154.273438 460.21875 C 148.691406 477.148438 150.929688 492.3125 159.285156 494.078125 C 167.632812 495.839844 178.933594 483.53125 184.519531 466.601562 C 190.105469 449.671875 187.859375 434.523438 179.511719 432.761719 C 171.15625 430.996094 159.859375 443.289062 154.273438 460.21875 Z M 154.273438 460.21875 " fill-opacity="1" fill-rule="nonzero"/><path fill="#fc5197" d="M 174.566406 440.691406 C 185.28125 444.460938 169.375 489.578125 158.660156 485.808594 L 82.96875 455.445312 C 59.296875 444.402344 77.875 404.675781 101.546875 415.71875 Z M 174.566406 440.691406 " fill-opacity="1" fill-rule="nonzero"/><path fill="#1d1e5f" d="M 743.003906 220.417969 L 665.566406 338.777344 C 663.898438 341.3125 660.488281 342.035156 657.949219 340.367188 L 539.457031 263.027344 C 538.511719 262.398438 537.820312 261.542969 537.414062 260.582031 L 537.355469 260.566406 C 537.355469 260.566406 532.859375 246.652344 532.695312 246.230469 C 532.695312 246.230469 541.097656 241.984375 543.304688 241.308594 C 544.582031 240.917969 545.632812 241.460938 546.609375 242.03125 L 615.300781 137.074219 C 616.953125 134.535156 620.363281 133.816406 622.902344 135.480469 L 728.082031 204.117188 C 728.394531 203.621094 728.605469 203.292969 728.605469 203.292969 L 739.773438 203.082031 L 743.785156 216.246094 C 743.785156 216.246094 743.769531 216.257812 743.753906 216.273438 C 744.070312 217.65625 743.828125 219.140625 743.003906 220.417969 Z M 743.003906 220.417969 " fill-opacity="1" fill-rule="nonzero"/><path fill="#9e59ff" d="M 661.433594 325.316406 L 738.875 206.964844 C 740.535156 204.421875 739.820312 201.019531 737.277344 199.359375 L 618.78125 122.015625 C 616.238281 120.355469 612.832031 121.070312 611.171875 123.609375 L 533.730469 241.960938 C 532.070312 244.5 532.78125 247.902344 535.324219 249.5625 L 653.824219 326.90625 C 656.363281 328.566406 659.773438 327.855469 661.433594 325.316406 Z M 661.433594 325.316406 " fill-opacity="1" fill-rule="nonzero"/><path fill="#ffffff" d="M 654.992188 307.449219 L 659.835938 300.046875 C 660.371094 299.226562 660.175781 298.15625 659.398438 297.648438 C 658.621094 297.140625 657.5625 297.394531 657.027344 298.210938 L 653.152344 304.132812 L 647.535156 300.46875 C 646.757812 299.960938 645.695312 300.214844 645.160156 301.03125 C 644.625 301.851562 644.820312 302.921875 645.597656 303.429688 L 652.617188 308.011719 C 653.394531 308.519531 654.453125 308.265625 654.992188 307.449219 Z M 654.992188 307.449219 " fill-opacity="1" fill-rule="nonzero"/><path fill="#ffffff" d="M 668.507812 283.730469 C 667.730469 283.222656 667.535156 282.148438 668.070312 281.332031 L 679.117188 264.453125 C 679.652344 263.632812 680.714844 263.378906 681.488281 263.886719 C 682.265625 264.394531 682.460938 265.464844 681.925781 266.285156 L 670.878906 283.164062 C 670.34375 283.984375 669.28125 284.234375 668.507812 283.730469 Z M 690.597656 249.96875 C 689.820312 249.460938 689.625 248.390625 690.160156 247.570312 L 701.207031 230.691406 C 701.742188 229.871094 702.804688 229.621094 703.582031 230.125 C 704.355469 230.632812 704.550781 231.703125 704.015625 232.523438 L 692.96875 249.402344 C 692.433594 250.222656 691.375 250.472656 690.597656 249.96875 Z M 690.597656 249.96875 " fill-opacity="1" fill-rule="nonzero"/><path fill="#ffffff" d="M 715.058594 215.644531 L 719.902344 208.242188 C 720.4375 207.425781 720.242188 206.351562 719.46875 205.847656 L 712.445312 201.261719 C 711.671875 200.757812 710.609375 201.007812 710.074219 201.828125 C 709.539062 202.644531 709.734375 203.71875 710.507812 204.222656 L 716.125 207.890625 L 712.25 213.8125 C 711.714844 214.628906 711.910156 215.703125 712.6875 216.210938 C 713.460938 216.714844 714.523438 216.464844 715.058594 215.644531 Z M 715.058594 215.644531 " fill-opacity="1" fill-rule="nonzero"/><path fill="#ffffff" d="M 694.5 193.777344 L 678.492188 183.324219 C 677.714844 182.820312 677.519531 181.746094 678.054688 180.929688 C 678.589844 180.109375 679.652344 179.859375 680.429688 180.363281 L 696.4375 190.816406 C 697.214844 191.320312 697.410156 192.394531 696.875 193.210938 C 696.339844 194.03125 695.277344 194.28125 694.5 193.777344 Z M 662.480469 172.875 L 646.472656 162.425781 C 645.695312 161.917969 645.5 160.847656 646.035156 160.027344 C 646.570312 159.210938 647.632812 158.957031 648.40625 159.464844 L 664.417969 169.914062 C 665.195312 170.421875 665.390625 171.492188 664.855469 172.3125 C 664.320312 173.128906 663.257812 173.382812 662.480469 172.875 Z M 662.480469 172.875 " fill-opacity="1" fill-rule="nonzero"/><path fill="#ffffff" d="M 632.832031 151.410156 C 633.367188 150.59375 633.175781 149.519531 632.398438 149.015625 L 625.378906 144.429688 C 624.601562 143.925781 623.539062 144.175781 623.003906 144.996094 L 618.160156 152.398438 C 617.625 153.214844 617.820312 154.289062 618.597656 154.792969 C 619.371094 155.300781 620.433594 155.050781 620.96875 154.230469 L 624.84375 148.308594 L 630.460938 151.976562 C 631.234375 152.480469 632.296875 152.230469 632.832031 151.410156 Z M 632.832031 151.410156 " fill-opacity="1" fill-rule="nonzero"/><path fill="#ffffff" d="M 574.414062 222.316406 C 573.636719 221.8125 573.445312 220.738281 573.980469 219.921875 L 585.023438 203.039062 C 585.558594 202.222656 586.621094 201.96875 587.398438 202.476562 C 588.171875 202.984375 588.367188 204.054688 587.832031 204.871094 L 576.789062 221.753906 C 576.25 222.570312 575.191406 222.824219 574.414062 222.316406 Z M 596.503906 188.554688 C 595.730469 188.050781 595.535156 186.976562 596.070312 186.160156 L 607.113281 169.277344 C 607.652344 168.460938 608.710938 168.207031 609.488281 168.714844 C 610.265625 169.222656 610.457031 170.292969 609.921875 171.113281 L 598.878906 187.992188 C 598.34375 188.808594 597.28125 189.0625 596.503906 188.554688 Z M 596.503906 188.554688 " fill-opacity="1" fill-rule="nonzero"/><path fill="#ffffff" d="M 567.921875 250.617188 C 568.457031 249.796875 568.261719 248.726562 567.484375 248.21875 L 561.867188 244.554688 L 565.742188 238.632812 C 566.277344 237.8125 566.085938 236.742188 565.308594 236.234375 C 564.53125 235.726562 563.472656 235.980469 562.933594 236.796875 L 558.09375 244.199219 C 557.554688 245.019531 557.75 246.089844 558.527344 246.597656 L 565.546875 251.179688 C 566.324219 251.6875 567.386719 251.433594 567.921875 250.617188 Z M 567.921875 250.617188 " fill-opacity="1" fill-rule="nonzero"/><path fill="#ffffff" d="M 629.589844 292.980469 L 613.578125 282.53125 C 612.804688 282.023438 612.609375 280.953125 613.144531 280.132812 C 613.679688 279.316406 614.738281 279.0625 615.515625 279.570312 L 631.527344 290.019531 C 632.304688 290.527344 632.496094 291.597656 631.960938 292.417969 C 631.425781 293.234375 630.367188 293.488281 629.589844 292.980469 Z M 597.570312 272.082031 L 581.558594 261.628906 C 580.78125 261.125 580.585938 260.050781 581.121094 259.234375 C 581.660156 258.414062 582.71875 258.164062 583.496094 258.667969 L 599.507812 269.121094 C 600.28125 269.625 600.476562 270.699219 599.941406 271.515625 C 599.40625 272.335938 598.34375 272.585938 597.570312 272.082031 Z M 597.570312 272.082031 " fill-opacity="1" fill-rule="nonzero"/><path fill="#f4bd25" d="M 633.847656 243.738281 L 618.03125 257.480469 C 617.664062 258.046875 616.976562 258.265625 616.296875 258.085938 C 612.390625 255.539062 616.730469 258.511719 604.375 249.5 L 604.433594 249.003906 L 653.410156 201.15625 C 655.96875 198.679688 660.144531 196.191406 663.8125 196.714844 C 672.472656 202.363281 669.601562 200.503906 674.464844 205.402344 C 675.246094 206.449219 675.878906 207.527344 675.519531 208.902344 L 655.015625 274.402344 C 654.445312 276.300781 653.558594 278.265625 652.519531 279.855469 C 652.457031 279.953125 652.210938 280.324219 652.148438 280.421875 C 651.023438 279.683594 645.433594 276.570312 644.214844 275.773438 C 644.210938 275.773438 639.375 272.617188 638.769531 272.222656 C 638.398438 271.570312 638.648438 272 646.214844 253.28125 C 646.238281 253.03125 646.609375 252.066406 646.574219 251.914062 C 646.636719 251.820312 646.570312 251.507812 646.570312 251.507812 L 636.722656 245.078125 Z M 633.847656 243.738281 " fill-opacity="1" fill-rule="nonzero"/><path fill="#ffda66" d="M 628.519531 235.664062 L 612.703125 249.410156 C 612.335938 249.972656 611.648438 250.195312 610.96875 250.015625 C 606.472656 247.074219 609.964844 249.300781 599.046875 241.429688 L 599.105469 240.933594 L 648.085938 193.085938 C 650.640625 190.605469 654.816406 188.117188 658.484375 188.640625 C 667.160156 194.304688 664.246094 192.40625 669.136719 197.332031 C 669.921875 198.375 670.550781 199.457031 670.191406 200.828125 C 647.851562 271.386719 649.96875 267.554688 646.820312 272.347656 C 645.695312 271.613281 640.105469 268.496094 638.886719 267.703125 C 638.839844 267.671875 634.035156 264.535156 633.441406 264.148438 C 633.320312 263.933594 633.3125 263.53125 633.4375 263.339844 L 640.886719 245.207031 C 640.914062 244.960938 641.28125 243.992188 641.246094 243.839844 C 641.308594 243.746094 641.242188 243.433594 641.242188 243.433594 L 631.394531 237.007812 Z M 644.742188 231.945312 L 645.109375 231.382812 L 652.515625 208.8125 L 651.804688 209.285156 C 647.261719 214.902344 649.816406 212.523438 637.382812 226.210938 L 636.769531 227.148438 C 639.980469 229.242188 644.019531 231.570312 644.742188 231.945312 Z M 644.742188 231.945312 " fill-opacity="1" fill-rule="nonzero"/><path fill="#000000" d="M 674.949219 303.449219 L 732.375 215.683594 C 732.570312 215.375 732.980469 215.292969 733.289062 215.492188 C 733.597656 215.695312 733.683594 216.101562 733.480469 216.410156 L 676.054688 304.171875 C 675.59375 304.90625 674.464844 304.183594 674.949219 303.449219 Z M 674.949219 303.449219 " fill-opacity="1" fill-rule="nonzero"/><path fill="#000000" d="M 673.1875 165.992188 C 672.867188 165.816406 672.753906 165.414062 672.929688 165.09375 C 673.105469 164.777344 673.496094 164.65625 673.828125 164.832031 C 680.917969 168.761719 687.90625 173.070312 694.605469 177.648438 C 694.910156 177.855469 694.988281 178.269531 694.78125 178.566406 C 693.878906 179.902344 692.886719 176.902344 673.1875 165.992188 Z M 673.1875 165.992188 " fill-opacity="1" fill-rule="nonzero"/><path fill="#1d1e5f" d="M 644.582031 700.355469 L 602.394531 698.578125 C 602.394531 698.578125 610.359375 688.332031 611.050781 688.644531 C 611.738281 688.957031 619.3125 683.246094 619.3125 683.246094 L 633.917969 685.683594 Z M 644.582031 700.355469 " fill-opacity="1" fill-rule="nonzero"/><path fill="#9e59ff" d="M 649.542969 662.488281 L 645.613281 699.066406 C 645.496094 700.148438 644.324219 700.769531 643.363281 700.257812 L 628.472656 692.304688 C 628.472656 692.304688 634.386719 673.066406 634.777344 673.335938 C 635.164062 673.601562 649.542969 662.488281 649.542969 662.488281 Z M 649.542969 662.488281 " fill-opacity="1" fill-rule="nonzero"/><path fill="#7d2bfc" d="M 628.8125 692.488281 L 602.9375 698.503906 C 602.378906 698.632812 601.867188 698.164062 601.949219 697.597656 L 607.394531 659.46875 C 607.394531 659.46875 615.367188 668.597656 617.140625 670.675781 C 618.910156 672.753906 617.839844 671.328125 617.839844 671.328125 C 617.839844 671.328125 625.824219 683.730469 626.429688 684.839844 C 627.039062 685.945312 628.8125 692.488281 628.8125 692.488281 Z M 628.8125 692.488281 " fill-opacity="1" fill-rule="nonzero"/><path fill="#9797ff" d="M 649.371094 663.519531 L 630.539062 691.847656 C 629.960938 692.714844 628.6875 692.714844 628.109375 691.847656 L 607.441406 660.90625 C 606.769531 659.898438 607.542969 658.558594 608.75 658.636719 L 648.253906 661.253906 C 649.371094 661.328125 649.992188 662.585938 649.371094 663.519531 Z M 649.371094 663.519531 " fill-opacity="1" fill-rule="nonzero"/><path fill="#fc5197" d="M 535.726562 85.957031 L 545.777344 115.503906 L 502.359375 128.527344 Z M 535.726562 85.957031 " fill-opacity="1" fill-rule="nonzero"/><g clip-path="url(#13672fae44)"><path fill="#ff81af" d="M 504.648438 83.234375 L 535.726562 85.957031 L 502.359375 128.527344 Z M 504.648438 83.234375 " fill-opacity="1" fill-rule="nonzero"/></g><path fill="#87d4ff" d="M 303.570312 717.988281 C 303.65625 718.429688 299.804688 720.738281 299.324219 721.054688 C 293.214844 725.054688 285.507812 727.195312 278.335938 725.484375 C 266.335938 722.617188 256.574219 711.265625 254.972656 697.71875 C 254.835938 696.566406 254.617188 683.609375 255.121094 683.617188 C 255.121094 683.617188 273.746094 684.492188 273.746094 684.492188 C 273.21875 698.957031 278.976562 706.71875 294.785156 700.195312 C 295.644531 699.839844 294.382812 702 295.191406 702.445312 C 298.953125 704.539062 302.066406 708.449219 302.742188 712.382812 C 303.339844 715.851562 302.019531 716.824219 302.214844 717.832031 C 302.28125 718.1875 303.5 717.632812 303.570312 717.988281 Z M 303.570312 717.988281 " fill-opacity="1" fill-rule="nonzero"/><path fill="#1d1e5f" d="M 303.414062 706.992188 C 303.699219 707.582031 303.957031 708.179688 304.183594 708.785156 C 304.410156 709.386719 304.601562 709.988281 304.757812 710.585938 C 304.914062 711.179688 305.035156 711.761719 305.121094 712.324219 C 305.203125 712.890625 305.246094 713.429688 305.253906 713.941406 C 305.257812 714.453125 305.226562 714.929688 305.152344 715.367188 C 305.082031 715.808594 304.972656 716.203125 304.824219 716.550781 C 304.675781 716.902344 304.496094 717.199219 304.277344 717.449219 C 304.0625 717.695312 303.8125 717.886719 303.535156 718.019531 C 303.257812 718.15625 302.957031 718.230469 302.628906 718.25 C 302.300781 718.265625 301.953125 718.222656 301.585938 718.125 C 301.21875 718.023438 300.84375 717.863281 300.453125 717.648438 C 300.0625 717.433594 299.667969 717.164062 299.269531 716.84375 C 298.871094 716.523438 298.476562 716.15625 298.085938 715.738281 C 297.691406 715.324219 297.3125 714.871094 296.941406 714.378906 C 296.570312 713.882812 296.21875 713.363281 295.882812 712.8125 C 295.550781 712.257812 295.238281 711.6875 294.953125 711.097656 C 294.667969 710.511719 294.414062 709.914062 294.1875 709.308594 C 293.960938 708.703125 293.769531 708.105469 293.609375 707.507812 C 293.453125 706.914062 293.332031 706.332031 293.25 705.769531 C 293.167969 705.203125 293.121094 704.664062 293.117188 704.152344 C 293.109375 703.640625 293.144531 703.164062 293.214844 702.726562 C 293.289062 702.285156 293.398438 701.890625 293.546875 701.539062 C 293.691406 701.191406 293.875 700.890625 294.089844 700.644531 C 294.308594 700.398438 294.554688 700.207031 294.832031 700.070312 C 295.109375 699.9375 295.414062 699.859375 295.742188 699.84375 C 296.070312 699.828125 296.417969 699.867188 296.78125 699.96875 C 297.148438 700.070312 297.527344 700.230469 297.917969 700.445312 C 298.304688 700.660156 298.699219 700.925781 299.097656 701.25 C 299.496094 701.570312 299.890625 701.9375 300.285156 702.351562 C 300.675781 702.769531 301.058594 703.222656 301.425781 703.714844 C 301.796875 704.207031 302.148438 704.730469 302.484375 705.28125 C 302.820312 705.832031 303.128906 706.402344 303.414062 706.992188 Z M 303.414062 706.992188 " fill-opacity="1" fill-rule="nonzero"/><path fill="#1d1e5f" d="M 264.910156 679.304688 C 265.550781 679.324219 266.183594 679.371094 266.8125 679.453125 C 267.4375 679.53125 268.046875 679.636719 268.632812 679.773438 C 269.222656 679.90625 269.78125 680.070312 270.308594 680.257812 C 270.835938 680.445312 271.320312 680.652344 271.769531 680.882812 C 272.214844 681.117188 272.613281 681.367188 272.960938 681.632812 C 273.308594 681.898438 273.601562 682.179688 273.835938 682.472656 C 274.074219 682.765625 274.25 683.0625 274.367188 683.371094 C 274.484375 683.675781 274.535156 683.984375 274.527344 684.292969 C 274.519531 684.601562 274.445312 684.90625 274.3125 685.203125 C 274.179688 685.503906 273.984375 685.792969 273.730469 686.070312 C 273.480469 686.347656 273.171875 686.609375 272.808594 686.855469 C 272.445312 687.101562 272.03125 687.328125 271.574219 687.535156 C 271.113281 687.738281 270.617188 687.917969 270.078125 688.074219 C 269.539062 688.230469 268.972656 688.359375 268.378906 688.460938 C 267.785156 688.5625 267.171875 688.632812 266.542969 688.675781 C 265.910156 688.714844 265.277344 688.726562 264.636719 688.707031 C 263.996094 688.691406 263.363281 688.640625 262.734375 688.5625 C 262.109375 688.484375 261.5 688.375 260.914062 688.242188 C 260.324219 688.105469 259.765625 687.945312 259.238281 687.757812 C 258.710938 687.570312 258.226562 687.359375 257.777344 687.128906 C 257.332031 686.898438 256.933594 686.648438 256.585938 686.382812 C 256.238281 686.113281 255.945312 685.835938 255.710938 685.542969 C 255.472656 685.25 255.296875 684.949219 255.179688 684.644531 C 255.0625 684.335938 255.011719 684.03125 255.019531 683.71875 C 255.027344 683.410156 255.101562 683.109375 255.234375 682.808594 C 255.367188 682.507812 255.5625 682.222656 255.816406 681.941406 C 256.066406 681.664062 256.375 681.402344 256.738281 681.15625 C 257.101562 680.910156 257.515625 680.683594 257.972656 680.480469 C 258.433594 680.273438 258.929688 680.09375 259.46875 679.9375 C 260.007812 679.78125 260.574219 679.652344 261.167969 679.554688 C 261.761719 679.453125 262.375 679.382812 263.003906 679.339844 C 263.636719 679.296875 264.269531 679.285156 264.910156 679.304688 Z M 264.910156 679.304688 " fill-opacity="1" fill-rule="nonzero"/><path fill="#000000" d="M 137.59375 478.964844 L 81.355469 456.410156 C 80.574219 456.097656 80.984375 454.875 81.851562 455.179688 L 138.09375 477.734375 C 138.886719 478.050781 138.4375 479.28125 137.59375 478.964844 Z M 137.59375 478.964844 " fill-opacity="1" fill-rule="nonzero"/><path fill="#000000" d="M 119.96875 461.769531 L 101.609375 455.496094 C 100.761719 455.203125 101.230469 453.953125 102.03125 454.242188 L 120.394531 460.515625 C 121.242188 460.808594 120.761719 462.074219 119.96875 461.769531 Z M 119.96875 461.769531 " fill-opacity="1" fill-rule="nonzero"/><path fill="#000000" d="M 171.273438 488.375 C 181.910156 476.238281 187.015625 461.53125 186.449219 444.65625 C 186.4375 444.296875 186.722656 443.984375 187.089844 443.972656 C 187.09375 443.972656 187.105469 443.972656 187.109375 443.972656 C 187.46875 443.972656 187.761719 444.257812 187.773438 444.617188 C 188.351562 461.835938 183.132812 476.847656 172.265625 489.242188 C 171.695312 489.90625 170.691406 489.03125 171.273438 488.375 Z M 171.273438 488.375 " fill-opacity="1" fill-rule="nonzero"/><path fill="#000000" d="M 314.613281 397.265625 C 314.453125 395.859375 308.257812 397.664062 442.921875 381.480469 C 443.277344 381.402344 443.609375 381.695312 443.65625 382.058594 C 443.695312 382.421875 443.4375 382.75 443.074219 382.792969 C 308.425781 398.320312 314.789062 398.691406 314.613281 397.265625 Z M 314.613281 397.265625 " fill-opacity="1" fill-rule="nonzero"/><path fill="#000000" d="M 481.179688 480.996094 L 472.15625 408.488281 C 472.109375 408.125 472.367188 407.792969 472.730469 407.746094 C 473.144531 407.671875 473.421875 407.960938 473.46875 408.320312 L 482.492188 480.832031 C 482.601562 481.691406 481.289062 481.886719 481.179688 480.996094 Z M 481.179688 480.996094 " fill-opacity="1" fill-rule="nonzero"/><path fill="#000000" d="M 469.800781 455.582031 C 469.457031 455.582031 469.167969 455.3125 469.140625 454.960938 L 467.222656 425.414062 C 467.203125 425.050781 467.476562 424.734375 467.84375 424.710938 C 468.21875 424.746094 468.519531 424.964844 468.546875 425.332031 L 470.464844 454.878906 C 470.484375 455.242188 470.210938 455.558594 469.84375 455.582031 C 469.828125 455.582031 469.816406 455.582031 469.800781 455.582031 Z M 469.800781 455.582031 " fill-opacity="1" fill-rule="nonzero"/><path fill="#000000" d="M 352.949219 206.21875 C 352.613281 206.21875 352.328125 205.964844 352.292969 205.628906 C 352.25 205.261719 352.515625 204.933594 352.878906 204.898438 L 501.707031 188.917969 C 502.136719 188.835938 502.394531 189.148438 502.433594 189.503906 C 502.476562 189.871094 502.210938 190.195312 501.851562 190.234375 L 353.023438 206.210938 C 352.996094 206.21875 352.96875 206.21875 352.949219 206.21875 Z M 352.949219 206.21875 " fill-opacity="1" fill-rule="nonzero"/><path fill="#000000" d="M 546.210938 220.386719 L 596.839844 145.578125 C 597.046875 145.28125 597.460938 145.203125 597.761719 145.402344 C 598.0625 145.609375 598.144531 146.019531 597.9375 146.324219 L 547.304688 221.132812 C 546.800781 221.859375 545.722656 221.105469 546.210938 220.386719 Z M 546.210938 220.386719 " fill-opacity="1" fill-rule="nonzero"/><path fill="#000000" d="M 428.871094 211.171875 C 428.546875 211.171875 428.261719 210.929688 428.214844 210.597656 C 428.167969 210.238281 428.421875 209.90625 428.785156 209.855469 L 497.109375 200.539062 C 497.457031 200.453125 497.800781 200.746094 497.855469 201.105469 C 497.898438 201.46875 497.648438 201.800781 497.285156 201.851562 L 428.960938 211.167969 C 428.929688 211.171875 428.902344 211.171875 428.871094 211.171875 Z M 428.871094 211.171875 " fill-opacity="1" fill-rule="nonzero"/><path fill="#000000" d="M 257.15625 428.425781 C 256.332031 428.425781 256.257812 427.199219 257.085938 427.105469 C 340.070312 417.996094 336.917969 417.40625 337.042969 418.699219 C 337.191406 419.976562 339.765625 418.746094 257.230469 428.417969 C 257.210938 428.425781 257.183594 428.425781 257.15625 428.425781 Z M 257.15625 428.425781 " fill-opacity="1" fill-rule="nonzero"/><path fill="#000000" d="M 315.339844 497.753906 C 314.722656 497.753906 316.054688 498.914062 293.765625 470.765625 C 293.542969 470.480469 293.589844 470.0625 293.878906 469.835938 C 294.160156 469.613281 294.578125 469.660156 294.8125 469.949219 L 315.332031 496.019531 L 325.695312 482.726562 C 325.917969 482.4375 326.335938 482.394531 326.625 482.613281 C 326.910156 482.839844 326.960938 483.253906 326.738281 483.542969 C 315.269531 498.101562 315.953125 497.753906 315.339844 497.753906 Z M 315.339844 497.753906 " fill-opacity="1" fill-rule="nonzero"/></svg>